<?xml version="1.0" encoding="utf-8"?>
<!-- Generator: Adobe Illustrator 20.1.0, SVG Export Plug-In . SVG Version: 6.00 Build 0)  -->
<!DOCTYPE svg PUBLIC "-//W3C//DTD SVG 1.1//EN" "http://www.w3.org/Graphics/SVG/1.1/DTD/svg11.dtd">
<svg version="1.1" xmlns="http://www.w3.org/2000/svg" xmlns:xlink="http://www.w3.org/1999/xlink" x="0px" y="0px"
	 viewBox="0 0 245 159" enable-background="new 0 0 245 159" xml:space="preserve">
<g id="Layer_2" display="none">
	<g display="inline">
		<rect x="5.8" y="153.6" fill="#60C8D3" width="74.4" height="79.4"/>
		<rect x="165.6" y="153.6" fill="#60C8D3" width="74.4" height="79.4"/>
		<rect x="85.6" y="153.6" fill="#60C8D3" width="74.4" height="79.4"/>
		<g>
			<rect x="5.8" y="162.4" fill="none" width="73.8" height="9.7"/>
			<text transform="matrix(1 0 0 1 20.4285 168.4315)" fill="#FFFFFF" font-family="'Lora-Bold'" font-size="8px">data library</text>
		</g>
		<g>
			<rect x="6" y="188.7" fill="none" width="73.9" height="9.7"/>
			<text transform="matrix(1 0 0 1 24.7571 194.7139)" fill="#FFFFFF" font-family="'Lora-Bold'" font-size="8px">user auth</text>
		</g>
		<g>
			<rect x="5.8" y="214.3" fill="none" width="74.2" height="9.7"/>
			<text transform="matrix(1 0 0 1 27.1546 220.3349)" fill="#FFFFFF" font-family="'Lora-Bold'" font-size="8px">security</text>
		</g>
		<rect x="2" y="178.3" fill="#FEFFFF" width="237.7" height="1.8"/>
		<rect x="2" y="204.5" fill="#FEFFFF" width="237.7" height="1.8"/>
		<g>
			<rect x="171.5" y="162.4" fill="none" width="62.6" height="9.7"/>
			<text transform="matrix(1 0 0 1 179.6363 168.4315)" fill="#FFFFFF" font-family="'Lora-Bold'" font-size="8px">tiled images</text>
		</g>
		<g>
			<rect x="171" y="188.7" fill="none" width="63.7" height="9.7"/>
			<text transform="matrix(1 0 0 1 183.4507 194.7139)" fill="#FFFFFF" font-family="'Lora-Bold'" font-size="8px">geospatial</text>
		</g>
		<g>
			<rect x="168.2" y="215.3" fill="none" width="69.3" height="9.7"/>
			<text transform="matrix(1 0 0 1 183.3985 221.3349)" fill="#FFFFFF" font-family="'Lora-Bold'" font-size="8px">vis library</text>
		</g>
		<g>
			<rect x="81.1" y="162.4" fill="none" width="83.3" height="9.7"/>
			<text transform="matrix(1 0 0 1 89.5069 168.4315)" fill="#FFFFFF" font-family="'Lora-Bold'" font-size="8px">image processing</text>
		</g>
		<g>
			<rect x="81.1" y="188.7" fill="none" width="83.3" height="9.7"/>
			<text transform="matrix(1 0 0 1 95.2335 194.7139)" fill="#FFFFFF" font-family="'Lora-Bold'" font-size="8px">graph analysis</text>
		</g>
		<g>
			<rect x="81.1" y="214.3" fill="none" width="83.3" height="9.7"/>
			<text transform="matrix(1 0 0 1 94.4288 220.3349)" fill="#FFFFFF" font-family="'Lora-Bold'" font-size="8px">custom scripts</text>
		</g>
	</g>
</g>
<g id="Layer_1">
	<rect x="84.8" y="86.7" fill="#214292" width="76.1" height="66.8"/>
	<polygon fill="#1C71B5" points="122.9,113 109.3,99.7 122.9,86.4 136.5,99.7 	"/>
	<polygon fill="#1C71B5" points="160.9,35.7 84.8,35.7 84.8,102.7 112.6,102.7 122.9,113 133.1,102.7 160.9,102.7 	"/>
	<g>
		<g>
			<path fill="#FFFFFF" d="M97.3,134.8h-0.2c-0.2,0-0.3,0-0.5,0.1c-0.2,0-0.4,0.1-0.5,0.2s-0.4,0.1-0.6,0.2s-0.5,0.1-0.7,0.1
				c-0.5,0-0.9-0.1-1.3-0.2c-0.4-0.2-0.7-0.4-1-0.7c-0.3-0.3-0.5-0.6-0.6-1c-0.1-0.4-0.2-0.8-0.2-1.3c0-0.3,0-0.5,0.1-0.8
				c0.1-0.3,0.1-0.5,0.3-0.8c0.1-0.3,0.3-0.5,0.4-0.7s0.4-0.4,0.6-0.6c0.2-0.2,0.5-0.3,0.8-0.4s0.6-0.1,1-0.1c0.1,0,0.2,0,0.4,0
				c0.1,0,0.3,0,0.5,0.1c0.2,0,0.3,0.1,0.5,0.1c0.1,0.1,0.3,0.1,0.4,0.2h0l0-0.4h0.7v2.1h-0.6c0-0.3-0.1-0.5-0.2-0.7
				c-0.1-0.2-0.2-0.3-0.4-0.5s-0.3-0.2-0.5-0.3c-0.2-0.1-0.4-0.1-0.6-0.1c-0.3,0-0.6,0.1-0.8,0.2s-0.4,0.3-0.6,0.6
				c-0.2,0.2-0.3,0.5-0.3,0.8c-0.1,0.3-0.1,0.6-0.1,0.9c0,0.4,0,0.7,0.1,1.1c0.1,0.3,0.2,0.6,0.4,0.8s0.4,0.4,0.6,0.6
				c0.2,0.1,0.5,0.2,0.8,0.2c0.1,0,0.2,0,0.3,0c0.1,0,0.2,0,0.3,0c0.1,0,0.2,0,0.3-0.1c0.1,0,0.2-0.1,0.3-0.1v-0.8
				c0-0.1,0-0.2,0-0.2c0-0.1,0-0.2,0-0.2c0-0.1,0-0.1,0-0.2c0-0.1,0-0.1,0-0.1l-0.7,0V132h2.4v0.6c-0.1,0-0.2,0-0.3,0
				c-0.1,0-0.1,0.1-0.2,0.1c0,0.1-0.1,0.1-0.1,0.2c0,0.1,0,0.2,0,0.4V134.8z"/>
			<path fill="#FFFFFF" d="M100.2,133.6c0,0,0,0.1,0,0.2s0,0.1,0,0.2s0,0.1,0,0.2c0,0.1,0,0.1,0,0.2l0.6,0v0.7h-2.4v-0.6
				c0.1,0,0.2,0,0.3-0.1s0.1-0.1,0.2-0.2s0.1-0.2,0.1-0.3c0-0.1,0-0.2,0-0.3v-1.5c0-0.1,0-0.2,0-0.4c0-0.1,0-0.3,0-0.4l-0.6,0v-0.7
				c0.2,0,0.4,0,0.6,0s0.3,0,0.4-0.1c0.1,0,0.2-0.1,0.3-0.1c0.1,0,0.1-0.1,0.2-0.1h0.5V133.6z M100.3,129c0,0.1,0,0.2,0,0.3
				s-0.1,0.2-0.1,0.2c-0.1,0.1-0.1,0.1-0.2,0.2c-0.1,0-0.2,0.1-0.3,0.1c-0.1,0-0.2,0-0.3-0.1s-0.2-0.1-0.2-0.2s-0.1-0.1-0.1-0.2
				c0-0.1-0.1-0.2-0.1-0.3s0-0.2,0.1-0.3s0.1-0.2,0.1-0.2s0.1-0.1,0.2-0.2s0.2-0.1,0.3-0.1c0.1,0,0.2,0,0.3,0.1
				c0.1,0,0.2,0.1,0.2,0.2s0.1,0.1,0.1,0.2C100.3,128.8,100.3,128.9,100.3,129z"/>
			<path fill="#FFFFFF" d="M104.4,130.4c0.1,0,0.2,0,0.3,0s0.2,0.1,0.3,0.1c0.1,0.1,0.1,0.1,0.2,0.2s0.1,0.2,0.1,0.3
				c0,0.1,0,0.1,0,0.2c0,0.1-0.1,0.1-0.1,0.2s-0.1,0.1-0.2,0.2c-0.1,0-0.2,0.1-0.3,0.1c-0.1,0-0.1,0-0.2,0c-0.1,0-0.1,0-0.2-0.1
				c-0.1,0-0.1-0.1-0.1-0.2c0-0.1-0.1-0.2-0.1-0.3c-0.1,0-0.2,0-0.3,0.1c-0.1,0.1-0.2,0.1-0.3,0.2c-0.1,0.1-0.2,0.2-0.2,0.3
				s-0.1,0.2-0.1,0.3v1.5c0,0,0,0.1,0,0.2s0,0.1,0,0.2s0,0.1,0,0.2c0,0.1,0,0.1,0,0.2l0.6,0v0.7h-2.4v-0.6c0.1,0,0.2,0,0.3-0.1
				s0.1-0.1,0.2-0.2s0.1-0.2,0.1-0.3c0-0.1,0-0.2,0-0.3v-1.5c0-0.1,0-0.2,0-0.4c0-0.1,0-0.3,0-0.4l-0.6,0v-0.7c0.2,0,0.4,0,0.6,0
				s0.3,0,0.4-0.1c0.1,0,0.2-0.1,0.3-0.1c0.1,0,0.1-0.1,0.2-0.1h0.4l0,0.8h0c0.1-0.1,0.1-0.2,0.2-0.3c0.1-0.1,0.2-0.2,0.3-0.3
				c0.1-0.1,0.2-0.2,0.4-0.2C104.1,130.5,104.2,130.4,104.4,130.4z"/>
			<path fill="#FFFFFF" d="M109.8,128.3v5.3c0,0,0,0.1,0,0.2s0,0.1,0,0.2s0,0.1,0,0.2c0,0.1,0,0.1,0,0.2l0.6,0v0.7h-1.7l0-0.4h0
				c-0.2,0.2-0.4,0.4-0.6,0.4c-0.2,0.1-0.4,0.1-0.7,0.1c-0.3,0-0.5-0.1-0.7-0.2c-0.2-0.1-0.4-0.3-0.6-0.5c-0.2-0.2-0.3-0.4-0.4-0.7
				s-0.1-0.6-0.1-0.9c0-0.4,0.1-0.7,0.2-1c0.1-0.3,0.3-0.6,0.5-0.8c0.2-0.2,0.4-0.4,0.7-0.5c0.3-0.1,0.6-0.2,0.9-0.2
				c0.2,0,0.3,0,0.4,0c0.1,0,0.2,0.1,0.4,0.1V130c0,0,0-0.1,0-0.2c0-0.1,0-0.1,0-0.2s0-0.1,0-0.2c0-0.1,0-0.1,0-0.2l-0.6,0v-0.7
				c0.2,0,0.4,0,0.6,0s0.3,0,0.4-0.1c0.1,0,0.2-0.1,0.3-0.1c0.1,0,0.1-0.1,0.2-0.1H109.8z M107.8,134.4c0.2,0,0.3,0,0.4-0.1
				s0.2-0.2,0.3-0.3v-2.7c-0.1,0-0.2-0.1-0.3-0.1c-0.1,0-0.2,0-0.4,0c-0.2,0-0.4,0.1-0.5,0.2c-0.1,0.1-0.2,0.2-0.3,0.4
				c-0.1,0.2-0.1,0.3-0.2,0.5c0,0.2-0.1,0.4-0.1,0.6c0,0.2,0,0.4,0.1,0.6s0.1,0.4,0.2,0.5c0.1,0.2,0.2,0.3,0.3,0.4
				S107.6,134.4,107.8,134.4z"/>
			<path fill="#FFFFFF" d="M115.1,132.7l-3,0.1c0,0.2,0,0.5,0.1,0.7c0,0.2,0.1,0.4,0.2,0.5c0.1,0.2,0.2,0.3,0.4,0.4
				c0.2,0.1,0.4,0.1,0.6,0.1c0.1,0,0.2,0,0.3,0s0.2-0.1,0.3-0.1c0.1-0.1,0.2-0.1,0.3-0.2c0.1-0.1,0.2-0.2,0.3-0.3l0.4,0.4
				c-0.2,0.2-0.3,0.4-0.5,0.6s-0.4,0.3-0.5,0.3s-0.4,0.1-0.5,0.2c-0.2,0-0.3,0-0.5,0c-0.3,0-0.6-0.1-0.9-0.2s-0.5-0.3-0.7-0.5
				s-0.3-0.5-0.5-0.8c-0.1-0.3-0.2-0.6-0.2-1c0-0.3,0.1-0.6,0.2-0.9c0.1-0.3,0.3-0.5,0.5-0.8s0.4-0.4,0.7-0.5
				c0.3-0.1,0.6-0.2,0.9-0.2c0.2,0,0.3,0,0.5,0s0.3,0.1,0.5,0.1c0.2,0.1,0.3,0.2,0.4,0.3s0.2,0.2,0.3,0.4s0.2,0.4,0.2,0.6
				C115.1,132.1,115.1,132.4,115.1,132.7z M113.1,131.1c-0.1,0-0.3,0-0.4,0.1s-0.2,0.1-0.3,0.2s-0.1,0.2-0.2,0.3
				c0,0.1-0.1,0.3-0.1,0.4h1.7c0-0.2,0-0.3-0.1-0.5s-0.1-0.2-0.2-0.3c-0.1-0.1-0.1-0.1-0.2-0.2S113.2,131.1,113.1,131.1z"/>
			<path fill="#FFFFFF" d="M118.9,130.4c0.1,0,0.2,0,0.3,0s0.2,0.1,0.3,0.1c0.1,0.1,0.1,0.1,0.2,0.2s0.1,0.2,0.1,0.3
				c0,0.1,0,0.1,0,0.2c0,0.1-0.1,0.1-0.1,0.2s-0.1,0.1-0.2,0.2c-0.1,0-0.2,0.1-0.3,0.1c-0.1,0-0.1,0-0.2,0c-0.1,0-0.1,0-0.2-0.1
				c-0.1,0-0.1-0.1-0.1-0.2c0-0.1-0.1-0.2-0.1-0.3c-0.1,0-0.2,0-0.3,0.1c-0.1,0.1-0.2,0.1-0.3,0.2c-0.1,0.1-0.2,0.2-0.2,0.3
				s-0.1,0.2-0.1,0.3v1.5c0,0,0,0.1,0,0.2s0,0.1,0,0.2s0,0.1,0,0.2c0,0.1,0,0.1,0,0.2l0.6,0v0.7h-2.4v-0.6c0.1,0,0.2,0,0.3-0.1
				s0.1-0.1,0.2-0.2s0.1-0.2,0.1-0.3c0-0.1,0-0.2,0-0.3v-1.5c0-0.1,0-0.2,0-0.4c0-0.1,0-0.3,0-0.4l-0.6,0v-0.7c0.2,0,0.4,0,0.6,0
				s0.3,0,0.4-0.1c0.1,0,0.2-0.1,0.3-0.1c0.1,0,0.1-0.1,0.2-0.1h0.4l0,0.8h0c0.1-0.1,0.1-0.2,0.2-0.3c0.1-0.1,0.2-0.2,0.3-0.3
				c0.1-0.1,0.2-0.2,0.4-0.2C118.6,130.5,118.7,130.4,118.9,130.4z"/>
			<path fill="#FFFFFF" d="M127.3,128.8l1,3.3c0.1,0.2,0.1,0.4,0.2,0.6c0.1,0.2,0.1,0.4,0.2,0.7h0c0.1-0.2,0.1-0.4,0.2-0.6
				c0.1-0.2,0.1-0.4,0.2-0.6l0.5-1.9c0-0.1,0.1-0.3,0.1-0.4c0.1-0.2,0.1-0.3,0.2-0.4v0l-0.7,0v-0.7h2v0.6c-0.1,0-0.2,0-0.3,0.1
				s-0.2,0.1-0.3,0.2c-0.1,0.1-0.2,0.2-0.2,0.3s-0.1,0.3-0.2,0.4l-1.5,4.8H128l-1.1-3.2c-0.1-0.2-0.1-0.5-0.2-0.7
				c0-0.2-0.1-0.4-0.1-0.6h0c0,0.2-0.1,0.4-0.1,0.6c0,0.2-0.1,0.4-0.2,0.6l-1,3.4h-0.8l-1.6-4.8c0-0.1-0.1-0.1-0.1-0.2
				c0-0.1-0.1-0.2-0.1-0.2c0-0.1,0-0.1-0.1-0.2s0-0.1,0-0.2l-0.5,0v-0.7h2.6v0.6h-0.1c-0.2,0-0.3,0-0.4,0.1
				c-0.1,0.1-0.1,0.2-0.1,0.3c0,0,0,0.1,0,0.1s0,0.1,0,0.2l0.5,2.1c0,0.1,0.1,0.2,0.1,0.3c0,0.1,0,0.2,0.1,0.3c0,0.1,0,0.2,0.1,0.3
				c0,0.1,0.1,0.2,0.1,0.4h0c0-0.1,0-0.1,0.1-0.2c0-0.1,0.1-0.2,0.1-0.3c0-0.1,0.1-0.2,0.1-0.4c0-0.1,0.1-0.3,0.1-0.4
				c0-0.1,0.1-0.2,0.1-0.3c0-0.1,0-0.2,0.1-0.2l0.8-2.8H127.3z"/>
			<path fill="#FFFFFF" d="M133.1,130.4c0.3,0,0.6,0.1,0.9,0.2c0.3,0.1,0.5,0.3,0.7,0.5s0.4,0.4,0.5,0.7c0.1,0.3,0.2,0.6,0.2,1
				c0,0.4-0.1,0.7-0.2,1c-0.1,0.3-0.3,0.6-0.5,0.8c-0.2,0.2-0.4,0.4-0.7,0.5s-0.6,0.2-0.9,0.2c-0.3,0-0.6-0.1-0.9-0.2
				c-0.3-0.1-0.5-0.3-0.7-0.5c-0.2-0.2-0.4-0.4-0.5-0.7c-0.1-0.3-0.2-0.6-0.2-1c0-0.4,0.1-0.7,0.2-1s0.3-0.6,0.5-0.8
				c0.2-0.2,0.4-0.4,0.7-0.5S132.8,130.4,133.1,130.4z M133.1,131.1c-0.2,0-0.3,0.1-0.4,0.2c-0.1,0.1-0.2,0.2-0.3,0.4
				s-0.1,0.3-0.2,0.5c0,0.2,0,0.4,0,0.6c0,0.2,0,0.5,0.1,0.7c0,0.2,0.1,0.4,0.2,0.6c0.1,0.2,0.2,0.3,0.3,0.4
				c0.1,0.1,0.3,0.2,0.5,0.2c0.2,0,0.3-0.1,0.4-0.1c0.1-0.1,0.2-0.2,0.3-0.4c0.1-0.2,0.1-0.3,0.1-0.5s0-0.4,0-0.6c0-0.2,0-0.4,0-0.7
				c0-0.2-0.1-0.4-0.2-0.6c-0.1-0.2-0.2-0.3-0.3-0.4C133.5,131.1,133.3,131.1,133.1,131.1z"/>
			<path fill="#FFFFFF" d="M139.2,130.4c0.1,0,0.2,0,0.3,0s0.2,0.1,0.3,0.1c0.1,0.1,0.1,0.1,0.2,0.2s0.1,0.2,0.1,0.3
				c0,0.1,0,0.1,0,0.2c0,0.1-0.1,0.1-0.1,0.2s-0.1,0.1-0.2,0.2c-0.1,0-0.2,0.1-0.3,0.1c-0.1,0-0.1,0-0.2,0c-0.1,0-0.1,0-0.2-0.1
				c-0.1,0-0.1-0.1-0.1-0.2c0-0.1-0.1-0.2-0.1-0.3c-0.1,0-0.2,0-0.3,0.1c-0.1,0.1-0.2,0.1-0.3,0.2c-0.1,0.1-0.2,0.2-0.2,0.3
				s-0.1,0.2-0.1,0.3v1.5c0,0,0,0.1,0,0.2s0,0.1,0,0.2s0,0.1,0,0.2c0,0.1,0,0.1,0,0.2l0.6,0v0.7h-2.4v-0.6c0.1,0,0.2,0,0.3-0.1
				s0.1-0.1,0.2-0.2s0.1-0.2,0.1-0.3c0-0.1,0-0.2,0-0.3v-1.5c0-0.1,0-0.2,0-0.4c0-0.1,0-0.3,0-0.4l-0.6,0v-0.7c0.2,0,0.4,0,0.6,0
				s0.3,0,0.4-0.1c0.1,0,0.2-0.1,0.3-0.1c0.1,0,0.1-0.1,0.2-0.1h0.4l0,0.8h0c0.1-0.1,0.1-0.2,0.2-0.3c0.1-0.1,0.2-0.2,0.3-0.3
				c0.1-0.1,0.2-0.2,0.4-0.2C138.9,130.5,139,130.4,139.2,130.4z"/>
			<path fill="#FFFFFF" d="M142,133.6c0,0,0,0.1,0,0.2c0,0.1,0,0.1,0,0.2s0,0.1,0,0.2c0,0.1,0,0.1,0,0.2l0.6,0v0.7h-2.4v-0.6
				c0.1,0,0.2,0,0.3-0.1c0.1,0,0.1-0.1,0.2-0.2s0.1-0.2,0.1-0.3c0-0.1,0-0.2,0-0.3V130c0-0.1,0-0.2,0-0.4c0-0.1,0-0.3,0-0.4l-0.6,0
				v-0.7c0.2,0,0.4,0,0.6,0c0.2,0,0.3,0,0.4-0.1c0.1,0,0.2-0.1,0.3-0.1c0.1,0,0.1-0.1,0.2-0.1h0.5v4.1h0.4l0.6-0.7
				c0.1-0.1,0.1-0.2,0.2-0.2c0.1-0.1,0.1-0.1,0.2-0.2v0l-0.5,0v-0.7h2v0.6c-0.2,0-0.3,0.1-0.4,0.1s-0.2,0.1-0.4,0.2
				c-0.1,0.1-0.2,0.1-0.3,0.2s-0.2,0.1-0.2,0.2l-0.6,0.6v0c0,0,0.1,0.1,0.1,0.1c0,0,0.1,0.1,0.1,0.1c0,0,0.1,0.1,0.1,0.2
				c0.1,0.1,0.1,0.1,0.2,0.2l0.6,0.8c0,0,0.1,0.1,0.1,0.2c0.1,0.1,0.1,0.1,0.2,0.2s0.1,0.1,0.2,0.2c0.1,0,0.2,0.1,0.3,0.1v0.6h-1
				c-0.1,0-0.2,0-0.3-0.1c-0.1,0-0.2-0.1-0.2-0.2c-0.1-0.1-0.2-0.1-0.2-0.2c-0.1-0.1-0.2-0.2-0.3-0.3c-0.1-0.1-0.2-0.2-0.3-0.3
				c-0.1-0.1-0.2-0.2-0.3-0.4c-0.1-0.1-0.2-0.2-0.2-0.3c-0.1-0.1-0.1-0.2-0.2-0.2l-0.2,0V133.6z"/>
			<path fill="#FFFFFF" d="M149.6,132.7l-3,0.1c0,0.2,0,0.5,0.1,0.7c0,0.2,0.1,0.4,0.2,0.5c0.1,0.2,0.2,0.3,0.4,0.4
				c0.2,0.1,0.4,0.1,0.6,0.1c0.1,0,0.2,0,0.3,0s0.2-0.1,0.3-0.1c0.1-0.1,0.2-0.1,0.3-0.2c0.1-0.1,0.2-0.2,0.3-0.3l0.4,0.4
				c-0.2,0.2-0.3,0.4-0.5,0.6s-0.4,0.3-0.5,0.3c-0.2,0.1-0.4,0.1-0.5,0.2c-0.2,0-0.3,0-0.5,0c-0.3,0-0.6-0.1-0.9-0.2
				s-0.5-0.3-0.7-0.5s-0.3-0.5-0.5-0.8c-0.1-0.3-0.2-0.6-0.2-1c0-0.3,0.1-0.6,0.2-0.9c0.1-0.3,0.3-0.5,0.5-0.8s0.4-0.4,0.7-0.5
				c0.3-0.1,0.6-0.2,0.9-0.2c0.2,0,0.3,0,0.5,0c0.2,0,0.3,0.1,0.5,0.1c0.2,0.1,0.3,0.2,0.4,0.3c0.1,0.1,0.2,0.2,0.3,0.4
				s0.2,0.4,0.2,0.6C149.6,132.1,149.6,132.4,149.6,132.7z M147.6,131.1c-0.1,0-0.3,0-0.4,0.1c-0.1,0-0.2,0.1-0.3,0.2
				s-0.1,0.2-0.2,0.3c0,0.1-0.1,0.3-0.1,0.4h1.7c0-0.2,0-0.3-0.1-0.5s-0.1-0.2-0.2-0.3c-0.1-0.1-0.1-0.1-0.2-0.2
				S147.7,131.1,147.6,131.1z"/>
			<path fill="#FFFFFF" d="M153.4,130.4c0.1,0,0.2,0,0.3,0c0.1,0,0.2,0.1,0.3,0.1c0.1,0.1,0.1,0.1,0.2,0.2c0,0.1,0.1,0.2,0.1,0.3
				c0,0.1,0,0.1,0,0.2c0,0.1-0.1,0.1-0.1,0.2s-0.1,0.1-0.2,0.2c-0.1,0-0.2,0.1-0.3,0.1c-0.1,0-0.1,0-0.2,0c-0.1,0-0.1,0-0.2-0.1
				c-0.1,0-0.1-0.1-0.1-0.2c0-0.1-0.1-0.2-0.1-0.3c-0.1,0-0.2,0-0.3,0.1c-0.1,0.1-0.2,0.1-0.3,0.2c-0.1,0.1-0.2,0.2-0.2,0.3
				s-0.1,0.2-0.1,0.3v1.5c0,0,0,0.1,0,0.2c0,0.1,0,0.1,0,0.2s0,0.1,0,0.2c0,0.1,0,0.1,0,0.2l0.6,0v0.7h-2.4v-0.6
				c0.1,0,0.2,0,0.3-0.1c0.1,0,0.1-0.1,0.2-0.2s0.1-0.2,0.1-0.3c0-0.1,0-0.2,0-0.3v-1.5c0-0.1,0-0.2,0-0.4c0-0.1,0-0.3,0-0.4l-0.6,0
				v-0.7c0.2,0,0.4,0,0.6,0c0.2,0,0.3,0,0.4-0.1c0.1,0,0.2-0.1,0.3-0.1c0.1,0,0.1-0.1,0.2-0.1h0.4l0,0.8h0c0.1-0.1,0.1-0.2,0.2-0.3
				c0.1-0.1,0.2-0.2,0.3-0.3c0.1-0.1,0.2-0.2,0.4-0.2C153.1,130.5,153.2,130.4,153.4,130.4z"/>
		</g>
	</g>
	<g>
		<g>
			<path fill="#FFFFFF" d="M105,91.7l-2.2,0l-0.2,0.5c0,0,0,0.1-0.1,0.2c0,0.1-0.1,0.1-0.1,0.2s-0.1,0.2-0.1,0.2
				c0,0.1-0.1,0.1-0.1,0.2l0.7,0v0.8h-2.1v-0.7c0.1,0,0.3,0,0.4-0.1s0.2-0.1,0.3-0.3s0.1-0.2,0.2-0.4s0.1-0.3,0.2-0.4l2-5.3h0.7
				l2.1,5.4c0,0,0,0.1,0.1,0.2s0.1,0.2,0.1,0.3s0.1,0.2,0.1,0.3s0,0.2,0,0.3l0.6,0v0.8h-2.7v-0.7c0.2,0,0.3,0,0.4-0.1
				c0.1-0.1,0.1-0.2,0.1-0.3c0-0.1,0-0.1,0-0.2c0-0.1,0-0.2-0.1-0.3L105,91.7z M103.1,91h1.7l-0.5-1.3c-0.1-0.2-0.2-0.5-0.2-0.7
				s-0.1-0.5-0.2-0.6h0c0,0.1-0.1,0.3-0.1,0.5s-0.1,0.5-0.2,0.8L103.1,91z"/>
			<path fill="#FFFFFF" d="M113.1,92.2c0,0,0,0.1,0,0.2s0,0.1,0,0.2s0,0.2,0,0.2s0,0.2,0,0.2l0.6,0v0.8h-2.6v-0.6
				c0.1,0,0.3,0,0.3-0.1c0.1,0,0.1-0.1,0.2-0.2c0-0.1,0.1-0.2,0.1-0.3c0-0.1,0-0.2,0-0.4l0-1.4c0-0.4-0.1-0.8-0.2-1
				c-0.1-0.2-0.3-0.3-0.6-0.3c-0.2,0-0.3,0-0.5,0.1c-0.2,0.1-0.3,0.2-0.4,0.3v2.3c0,0,0,0.1,0,0.2s0,0.1,0,0.2c0,0.1,0,0.2,0,0.2
				c0,0.1,0,0.2,0,0.2l0.6,0v0.8h-2.6v-0.6c0.1,0,0.3,0,0.3-0.1s0.1-0.1,0.2-0.2s0.1-0.2,0.1-0.3s0-0.2,0-0.4v-1.7
				c0-0.1,0-0.3,0-0.4s0-0.3,0-0.4l-0.7,0V89c0.2,0,0.4,0,0.6,0s0.3,0,0.5-0.1s0.2-0.1,0.3-0.1s0.1-0.1,0.2-0.1h0.5l0,0.5h0
				c0.1-0.1,0.2-0.1,0.3-0.2s0.3-0.1,0.4-0.2s0.3-0.1,0.4-0.1s0.2,0,0.3,0c0.3,0,0.6,0,0.8,0.1s0.4,0.2,0.5,0.4s0.2,0.4,0.3,0.7
				s0.1,0.6,0.1,1V92.2z"/>
			<path fill="#FFFFFF" d="M114.4,90c0-0.2,0.1-0.4,0.2-0.5s0.3-0.3,0.4-0.4s0.4-0.2,0.7-0.3s0.5-0.1,0.8-0.1s0.6,0,0.8,0.1
				s0.4,0.2,0.6,0.3s0.3,0.4,0.4,0.6s0.1,0.5,0.1,0.9c0,0.2,0,0.3,0,0.4s0,0.3,0,0.4s0,0.2,0,0.4s0,0.3,0,0.4c0,0,0,0.1,0,0.2
				s0,0.1,0,0.2s0,0.2,0,0.2s0,0.2,0,0.2l0.6,0v0.8h-1.9c0-0.1,0-0.2,0-0.2s0-0.1,0-0.2h0c-0.2,0.2-0.5,0.4-0.7,0.5
				s-0.5,0.1-0.8,0.1c-0.2,0-0.4,0-0.6-0.1s-0.3-0.2-0.4-0.3s-0.2-0.3-0.3-0.4s-0.1-0.3-0.1-0.5c0-0.2,0-0.4,0.1-0.6
				s0.2-0.3,0.3-0.5s0.3-0.2,0.5-0.3s0.4-0.2,0.6-0.2s0.4-0.1,0.6-0.2s0.4-0.1,0.7-0.1v-0.5c0-0.1,0-0.3,0-0.4s-0.1-0.2-0.1-0.3
				s-0.1-0.1-0.2-0.2s-0.2-0.1-0.3-0.1c-0.1,0-0.3,0-0.4,0.1s-0.2,0.1-0.3,0.2c0.1,0.1,0.1,0.1,0.1,0.2s0,0.1,0,0.2
				c0,0.1,0,0.1,0,0.2s-0.1,0.1-0.1,0.2s-0.1,0.1-0.2,0.1s-0.2,0.1-0.3,0.1c-0.1,0-0.2,0-0.3-0.1s-0.1-0.1-0.2-0.1s-0.1-0.1-0.1-0.2
				S114.4,90.1,114.4,90z M117,91.5c-0.2,0-0.4,0.1-0.5,0.1c-0.2,0-0.3,0.1-0.4,0.2s-0.2,0.2-0.3,0.3s-0.1,0.2-0.1,0.4
				c0,0.1,0,0.2,0.1,0.2s0.1,0.1,0.1,0.2s0.1,0.1,0.2,0.1s0.1,0,0.2,0c0.2,0,0.3,0,0.4-0.1c0.1-0.1,0.3-0.2,0.4-0.3L117,91.5z"/>
			<path fill="#FFFFFF" d="M121.4,92.2c0,0,0,0.1,0,0.2s0,0.1,0,0.2s0,0.2,0,0.2s0,0.2,0,0.2l0.6,0v0.8h-2.6v-0.6
				c0.1,0,0.3,0,0.3-0.1s0.1-0.1,0.2-0.2s0.1-0.2,0.1-0.3s0-0.2,0-0.4v-4.1c0-0.1,0-0.3,0-0.4s0-0.3,0-0.5l-0.7,0v-0.8
				c0.2,0,0.4,0,0.6,0s0.3,0,0.5-0.1s0.2-0.1,0.3-0.1s0.1-0.1,0.2-0.1h0.5V92.2z"/>
			<path fill="#FFFFFF" d="M125.4,92.5c0-0.1,0.1-0.2,0.1-0.3s0.1-0.3,0.1-0.5s0.1-0.4,0.2-0.6s0.1-0.4,0.2-0.6c0-0.1,0-0.1,0.1-0.2
				s0.1-0.2,0.1-0.3s0.1-0.2,0.1-0.3s0.1-0.1,0.1-0.2v0l-0.6,0v-0.8h1.8v0.6c-0.2,0.1-0.4,0.2-0.5,0.4s-0.3,0.5-0.4,0.8l-1.3,3.6
				c-0.1,0.4-0.3,0.8-0.4,1.1s-0.3,0.5-0.4,0.7s-0.3,0.3-0.5,0.4s-0.4,0.1-0.6,0.1c-0.1,0-0.3,0-0.4-0.1c-0.1,0-0.2-0.1-0.3-0.2
				s-0.1-0.2-0.2-0.3s-0.1-0.2-0.1-0.3c0-0.1,0-0.2,0-0.3s0.1-0.2,0.1-0.2s0.1-0.1,0.2-0.2s0.2-0.1,0.3-0.1c0.1,0,0.1,0,0.2,0
				s0.1,0.1,0.2,0.1s0.1,0.1,0.1,0.2s0,0.1,0,0.2c0,0,0,0.1,0,0.1v0c0.1,0,0.1,0,0.2-0.1s0.2-0.2,0.2-0.4s0.1-0.3,0.2-0.5
				s0.1-0.4,0.2-0.6l-1.6-3.2c-0.1-0.2-0.2-0.3-0.2-0.5s-0.1-0.3-0.1-0.4s-0.1-0.2-0.1-0.3s0-0.2,0-0.2l-0.5,0v-0.8h2.5v0.6
				c-0.2,0-0.3,0.1-0.3,0.1s-0.1,0.2-0.1,0.3c0,0.1,0,0.1,0,0.2s0,0.1,0.1,0.2L125.4,92.5L125.4,92.5z"/>
			<path fill="#FFFFFF" d="M127.8,88.8c0.2,0,0.3,0,0.5-0.1s0.3-0.2,0.4-0.3s0.2-0.3,0.3-0.4s0.1-0.3,0.2-0.4h0.7l0,1.3h1.3v0.8
				l-1.3,0c0,0.5,0,0.9,0,1.2c0,0.3,0,0.6,0,0.7s0,0.3,0,0.4c0,0.1,0,0.1,0,0.1c0,0.1,0,0.2,0,0.3s0,0.2,0.1,0.3
				c0,0.1,0.1,0.2,0.2,0.2s0.2,0.1,0.3,0.1c0,0,0.1,0,0.2,0s0.1,0,0.2-0.1c0.1,0,0.2-0.1,0.3-0.2c0.1-0.1,0.2-0.2,0.3-0.3l0.5,0.4
				c-0.2,0.3-0.4,0.5-0.5,0.6s-0.4,0.3-0.5,0.3s-0.3,0.1-0.5,0.1s-0.3,0-0.3,0c-0.1,0-0.2,0-0.3,0s-0.2-0.1-0.4-0.1
				s-0.2-0.1-0.3-0.2s-0.2-0.2-0.3-0.3s-0.1-0.3-0.2-0.5s-0.1-0.4-0.1-0.7l0-2.4l-0.7,0V88.8z"/>
			<path fill="#FFFFFF" d="M134.2,92.2c0,0,0,0.1,0,0.2s0,0.1,0,0.2s0,0.2,0,0.2s0,0.2,0,0.2l0.6,0v0.8h-2.6v-0.6
				c0.1,0,0.3,0,0.3-0.1s0.1-0.1,0.2-0.2s0.1-0.2,0.1-0.3s0-0.2,0-0.4v-1.7c0-0.1,0-0.3,0-0.4s0-0.3,0-0.5l-0.7,0V89
				c0.2,0,0.4,0,0.6,0s0.3,0,0.5-0.1s0.2-0.1,0.3-0.1c0.1,0,0.1-0.1,0.2-0.1h0.5V92.2z M134.4,87c0,0.1,0,0.2-0.1,0.3
				s-0.1,0.2-0.1,0.3s-0.1,0.1-0.2,0.2s-0.2,0.1-0.3,0.1c-0.1,0-0.2,0-0.3-0.1s-0.2-0.1-0.2-0.2s-0.1-0.2-0.2-0.3s-0.1-0.2-0.1-0.3
				s0-0.2,0.1-0.3s0.1-0.2,0.2-0.3s0.2-0.1,0.2-0.2s0.2-0.1,0.3-0.1c0.1,0,0.2,0,0.3,0.1s0.2,0.1,0.2,0.2s0.1,0.2,0.2,0.3
				S134.4,86.9,134.4,87z"/>
			<path fill="#FFFFFF" d="M138.6,90.1c0-0.1,0-0.1,0-0.2s0.1-0.2,0.1-0.2c0-0.1-0.1-0.1-0.1-0.2s-0.1-0.1-0.2-0.1s-0.1,0-0.2-0.1
				s-0.1,0-0.2,0c-0.2,0-0.3,0-0.5,0.1s-0.3,0.2-0.4,0.3s-0.2,0.3-0.2,0.6s-0.1,0.5-0.1,0.8c0,0.3,0,0.5,0.1,0.7s0.1,0.4,0.2,0.6
				s0.2,0.3,0.4,0.4s0.4,0.2,0.6,0.2c0.1,0,0.3,0,0.4-0.1s0.3-0.1,0.4-0.2s0.2-0.1,0.4-0.2s0.2-0.2,0.3-0.3l0.5,0.4
				c-0.2,0.3-0.4,0.5-0.6,0.6s-0.4,0.3-0.6,0.4s-0.4,0.2-0.6,0.2s-0.4,0-0.6,0c-0.3,0-0.7-0.1-1-0.2s-0.6-0.3-0.8-0.5
				s-0.4-0.5-0.5-0.8s-0.2-0.7-0.2-1.1c0-0.4,0.1-0.7,0.2-1.1s0.3-0.6,0.5-0.9s0.5-0.5,0.8-0.6s0.7-0.2,1.1-0.2c0.3,0,0.6,0,0.8,0.1
				s0.4,0.2,0.6,0.3s0.3,0.3,0.4,0.4s0.1,0.3,0.1,0.5c0,0.1,0,0.2,0,0.3s-0.1,0.2-0.1,0.2s-0.1,0.1-0.2,0.2s-0.2,0.1-0.3,0.1
				c-0.1,0-0.2,0-0.3-0.1s-0.1-0.1-0.2-0.2s-0.1-0.1-0.1-0.2S138.6,90.2,138.6,90.1z"/>
			<path fill="#FFFFFF" d="M141.4,92.2c0,0.2,0.1,0.3,0.1,0.4s0.2,0.2,0.3,0.3s0.3,0.2,0.5,0.2s0.4,0.1,0.6,0.1c0.1,0,0.2,0,0.2,0
				s0.2,0,0.2-0.1s0.1-0.1,0.2-0.2s0.1-0.1,0.1-0.2c0-0.1,0-0.2-0.1-0.2s-0.1-0.1-0.2-0.2s-0.2-0.1-0.4-0.2s-0.3-0.1-0.5-0.2
				c-0.2-0.1-0.4-0.2-0.6-0.3s-0.4-0.2-0.6-0.3s-0.3-0.3-0.4-0.5s-0.2-0.4-0.2-0.7c0-0.2,0-0.4,0.1-0.6s0.2-0.4,0.3-0.5
				s0.3-0.3,0.6-0.4s0.5-0.1,0.8-0.1c0.1,0,0.2,0,0.3,0s0.2,0,0.3,0.1s0.2,0.1,0.3,0.1s0.2,0.1,0.3,0.2h0l0-0.3h0.8v1.8h-0.6
				c0-0.2-0.1-0.3-0.2-0.5s-0.2-0.3-0.3-0.4s-0.3-0.2-0.4-0.2s-0.3-0.1-0.5-0.1c-0.1,0-0.2,0-0.2,0s-0.2,0.1-0.2,0.1
				s-0.1,0.1-0.1,0.2s-0.1,0.1-0.1,0.2c0,0.1,0,0.2,0.1,0.3s0.1,0.1,0.3,0.2s0.2,0.1,0.4,0.2s0.3,0.1,0.5,0.2
				c0.3,0.1,0.5,0.2,0.7,0.3s0.4,0.2,0.6,0.4s0.3,0.3,0.4,0.5s0.1,0.4,0.1,0.6c0,0.3-0.1,0.5-0.2,0.7s-0.2,0.4-0.4,0.5
				s-0.4,0.2-0.6,0.3S143.2,94,143,94c-0.1,0-0.3,0-0.4,0s-0.3,0-0.4-0.1s-0.3-0.1-0.4-0.1s-0.2-0.1-0.3-0.2h0l0,0.3h-0.8l0-1.7
				H141.4z"/>
		</g>
	</g>
	<g>
		<path fill="#FFFFFF" d="M130.3,58.8c0,0-3.8-0.8-8.5,3.9c-1.5,1.5-2.7,3.1-3.5,4.6l3.5,3.5c1.4-0.7,3-1.9,4.6-3.5
			C131,62.8,130.3,58.8,130.3,58.8z M126.5,62.5c-0.4-0.4-0.4-1,0-1.4c0.4-0.4,1-0.4,1.4,0c0.4,0.4,0.4,1,0,1.4
			C127.5,62.9,126.9,62.9,126.5,62.5z"/>
		<polygon fill="#FFFFFF" points="120.9,63.6 117.6,63.6 115.4,67.6 116.2,68.4 118.9,67.8 		"/>
		<polygon fill="#FFFFFF" points="125.5,68.2 125.5,71.5 121.6,73.8 120.7,72.9 121.4,70.2 		"/>
	</g>
	<rect x="163.8" y="86.7" fill="#214292" width="76.1" height="66.8"/>
	<polygon fill="#1C71B5" points="240,35.7 163.8,35.7 163.8,102.7 191.4,102.7 201.9,113 212.4,102.7 240,102.7 	"/>
	<g>
		<g>
			<path fill="#FFFFFF" d="M194.6,128.6h-0.2c-0.2,0-0.3,0-0.5,0.1c-0.2,0-0.4,0.1-0.5,0.2s-0.4,0.1-0.6,0.2s-0.5,0.1-0.7,0.1
				c-0.5,0-0.9-0.1-1.3-0.2c-0.4-0.2-0.7-0.4-1-0.7c-0.3-0.3-0.5-0.6-0.6-1c-0.1-0.4-0.2-0.8-0.2-1.3c0-0.3,0-0.5,0.1-0.8
				c0.1-0.3,0.1-0.5,0.3-0.8c0.1-0.3,0.3-0.5,0.4-0.7s0.4-0.4,0.6-0.6c0.2-0.2,0.5-0.3,0.8-0.4s0.6-0.1,1-0.1c0.1,0,0.2,0,0.4,0
				c0.1,0,0.3,0,0.5,0.1c0.2,0,0.3,0.1,0.5,0.1c0.1,0.1,0.3,0.1,0.4,0.2h0l0-0.4h0.7v2.1h-0.6c0-0.3-0.1-0.5-0.2-0.7
				c-0.1-0.2-0.2-0.3-0.4-0.5s-0.3-0.2-0.5-0.3c-0.2-0.1-0.4-0.1-0.6-0.1c-0.3,0-0.6,0.1-0.8,0.2s-0.4,0.3-0.6,0.6
				c-0.2,0.2-0.3,0.5-0.3,0.8c-0.1,0.3-0.1,0.6-0.1,0.9c0,0.4,0,0.7,0.1,1.1c0.1,0.3,0.2,0.6,0.4,0.8s0.4,0.4,0.6,0.6
				c0.2,0.1,0.5,0.2,0.8,0.2c0.1,0,0.2,0,0.3,0c0.1,0,0.2,0,0.3,0c0.1,0,0.2,0,0.3-0.1c0.1,0,0.2-0.1,0.3-0.1v-0.8
				c0-0.1,0-0.2,0-0.2c0-0.1,0-0.2,0-0.2c0-0.1,0-0.1,0-0.2c0-0.1,0-0.1,0-0.1l-0.7,0v-0.7h2.4v0.6c-0.1,0-0.2,0-0.3,0
				c-0.1,0-0.1,0.1-0.2,0.1c0,0.1-0.1,0.1-0.1,0.2c0,0.1,0,0.2,0,0.4V128.6z"/>
			<path fill="#FFFFFF" d="M199.9,126.5l-3,0.1c0,0.2,0,0.5,0.1,0.7c0,0.2,0.1,0.4,0.2,0.5c0.1,0.2,0.2,0.3,0.4,0.4
				c0.2,0.1,0.4,0.1,0.6,0.1c0.1,0,0.2,0,0.3,0s0.2-0.1,0.3-0.1c0.1-0.1,0.2-0.1,0.3-0.2c0.1-0.1,0.2-0.2,0.3-0.3l0.4,0.4
				c-0.2,0.2-0.3,0.4-0.5,0.6s-0.4,0.3-0.5,0.3c-0.2,0.1-0.4,0.1-0.5,0.2c-0.2,0-0.3,0-0.5,0c-0.3,0-0.6-0.1-0.9-0.2
				s-0.5-0.3-0.7-0.5s-0.3-0.5-0.5-0.8c-0.1-0.3-0.2-0.6-0.2-1c0-0.3,0.1-0.6,0.2-0.9c0.1-0.3,0.3-0.5,0.5-0.8s0.4-0.4,0.7-0.5
				c0.3-0.1,0.6-0.2,0.9-0.2c0.2,0,0.3,0,0.5,0c0.2,0,0.3,0.1,0.5,0.1c0.2,0.1,0.3,0.2,0.4,0.3c0.1,0.1,0.2,0.2,0.3,0.4
				s0.2,0.4,0.2,0.6C199.9,125.9,199.9,126.2,199.9,126.5z M197.9,124.9c-0.1,0-0.3,0-0.4,0.1c-0.1,0-0.2,0.1-0.3,0.2
				s-0.1,0.2-0.2,0.3c0,0.1-0.1,0.3-0.1,0.4h1.7c0-0.2,0-0.3-0.1-0.5s-0.1-0.2-0.2-0.3c-0.1-0.1-0.1-0.1-0.2-0.2
				S198,124.9,197.9,124.9z"/>
			<path fill="#FFFFFF" d="M202.7,124.2c0.3,0,0.6,0.1,0.9,0.2c0.3,0.1,0.5,0.3,0.7,0.5s0.4,0.4,0.5,0.7c0.1,0.3,0.2,0.6,0.2,1
				c0,0.4-0.1,0.7-0.2,1c-0.1,0.3-0.3,0.6-0.5,0.8c-0.2,0.2-0.4,0.4-0.7,0.5s-0.6,0.2-0.9,0.2c-0.3,0-0.6-0.1-0.9-0.2
				c-0.3-0.1-0.5-0.3-0.7-0.5c-0.2-0.2-0.4-0.4-0.5-0.7c-0.1-0.3-0.2-0.6-0.2-1c0-0.4,0.1-0.7,0.2-1s0.3-0.6,0.5-0.8
				c0.2-0.2,0.4-0.4,0.7-0.5S202.4,124.2,202.7,124.2z M202.7,124.9c-0.2,0-0.3,0.1-0.4,0.2c-0.1,0.1-0.2,0.2-0.3,0.4
				s-0.1,0.3-0.2,0.5c0,0.2,0,0.4,0,0.6c0,0.2,0,0.5,0.1,0.7c0,0.2,0.1,0.4,0.2,0.6c0.1,0.2,0.2,0.3,0.3,0.4
				c0.1,0.1,0.3,0.2,0.5,0.2c0.2,0,0.3-0.1,0.4-0.1c0.1-0.1,0.2-0.2,0.3-0.4c0.1-0.2,0.1-0.3,0.1-0.5c0-0.2,0-0.4,0-0.6
				c0-0.2,0-0.4,0-0.7c0-0.2-0.1-0.4-0.2-0.6c-0.1-0.2-0.2-0.3-0.3-0.4C203.1,124.9,202.9,124.9,202.7,124.9z"/>
			<path fill="#FFFFFF" d="M208.5,126.6c0,0.4,0,0.8-0.1,1.1s-0.2,0.6-0.4,0.8s-0.4,0.3-0.6,0.4s-0.5,0.1-0.8,0.1
				c-0.2,0-0.3,0-0.5-0.1c-0.2,0-0.3-0.1-0.4-0.2s-0.2-0.2-0.3-0.3s-0.1-0.2-0.1-0.4c0-0.1,0-0.2,0-0.3c0-0.1,0.1-0.2,0.1-0.2
				c0.1-0.1,0.1-0.1,0.2-0.2s0.2-0.1,0.3-0.1c0.1,0,0.2,0,0.3,0.1c0.1,0,0.1,0.1,0.2,0.1c0,0.1,0.1,0.1,0.1,0.2s0,0.1,0,0.2
				c0,0,0,0.1,0,0.2c0,0.1,0,0.1-0.1,0.2c0,0,0,0.1,0.1,0.1c0,0,0.1,0,0.1,0s0.1,0,0.1,0c0,0,0,0,0.1,0c0.1,0,0.2-0.1,0.3-0.2
				c0.1-0.1,0.1-0.3,0.1-0.5v-3.6c0-0.1,0-0.2,0-0.2c0-0.1,0-0.2,0-0.2c0-0.1,0-0.1,0-0.2c0-0.1,0-0.1,0-0.1l-0.7,0v-0.7h2.6v0.6
				c-0.1,0-0.2,0-0.3,0s-0.1,0-0.2,0.1c-0.1,0-0.1,0.1-0.1,0.2s0,0.2,0,0.4V126.6z"/>
			<path fill="#FFFFFF" d="M212.1,128.4c0.2,0,0.3,0,0.4-0.1c0.1,0,0.2-0.1,0.3-0.2c0.1-0.1,0.2-0.2,0.2-0.3s0.1-0.2,0.1-0.3
				c0-0.2,0-0.3-0.1-0.4c-0.1-0.1-0.2-0.2-0.3-0.3c-0.1-0.1-0.3-0.2-0.5-0.2c-0.2-0.1-0.3-0.1-0.5-0.2c-0.3-0.1-0.6-0.2-0.8-0.4
				s-0.5-0.3-0.6-0.5s-0.3-0.4-0.4-0.6s-0.2-0.5-0.2-0.8c0-0.1,0-0.3,0-0.4c0-0.1,0.1-0.3,0.1-0.4c0.1-0.1,0.2-0.2,0.3-0.4
				s0.2-0.2,0.4-0.3c0.2-0.1,0.3-0.2,0.5-0.2c0.2,0,0.4-0.1,0.7-0.1c0.1,0,0.2,0,0.4,0c0.1,0,0.3,0,0.4,0.1s0.3,0.1,0.4,0.1
				c0.1,0.1,0.2,0.1,0.3,0.2h0l0-0.4h0.7v2.1h-0.6c-0.1-0.5-0.3-0.9-0.5-1.1c-0.3-0.2-0.6-0.4-1-0.4c-0.1,0-0.3,0-0.4,0.1
				c-0.1,0-0.2,0.1-0.3,0.2c-0.1,0.1-0.2,0.2-0.2,0.2c-0.1,0.1-0.1,0.2-0.1,0.3c0,0.1,0,0.3,0.1,0.4s0.1,0.2,0.3,0.3
				s0.3,0.2,0.5,0.3s0.4,0.2,0.6,0.3c0.1,0.1,0.3,0.1,0.5,0.2s0.3,0.2,0.5,0.2c0.2,0.1,0.3,0.2,0.4,0.3c0.1,0.1,0.3,0.2,0.4,0.4
				c0.1,0.1,0.2,0.3,0.2,0.4c0.1,0.2,0.1,0.3,0.1,0.5c0,0.3-0.1,0.5-0.2,0.7c-0.1,0.2-0.3,0.4-0.5,0.6c-0.2,0.2-0.4,0.3-0.7,0.4
				c-0.3,0.1-0.6,0.1-0.9,0.1c-0.1,0-0.2,0-0.4,0c-0.1,0-0.3,0-0.4-0.1s-0.3-0.1-0.4-0.1c-0.1-0.1-0.3-0.1-0.4-0.2h0l0,0.4h-0.7
				v-2.1h0.6c0,0.3,0.1,0.5,0.2,0.7c0.1,0.2,0.2,0.3,0.4,0.5c0.1,0.1,0.3,0.2,0.5,0.3C211.7,128.3,211.9,128.4,212.1,128.4z"/>
			<path fill="#FFFFFF" d="M186.2,136.4c0,0.4,0,0.7,0.1,1.1c0.1,0.3,0.2,0.6,0.4,0.8c0.2,0.2,0.4,0.4,0.6,0.5
				c0.2,0.1,0.5,0.2,0.8,0.2c0.2,0,0.4,0,0.6-0.1s0.4-0.1,0.6-0.2c0.2-0.1,0.3-0.2,0.5-0.3c0.2-0.1,0.3-0.3,0.4-0.5l0.4,0.4
				c-0.2,0.3-0.4,0.6-0.7,0.7s-0.5,0.3-0.7,0.4c-0.2,0.1-0.5,0.2-0.7,0.2c-0.2,0-0.4,0.1-0.6,0.1c-0.5,0-0.9-0.1-1.3-0.2
				c-0.4-0.2-0.7-0.4-1-0.7c-0.3-0.3-0.5-0.6-0.6-1s-0.2-0.8-0.2-1.3c0-0.3,0-0.5,0.1-0.8c0.1-0.3,0.1-0.5,0.3-0.8
				c0.1-0.3,0.3-0.5,0.4-0.7s0.4-0.4,0.6-0.6c0.2-0.2,0.5-0.3,0.8-0.4c0.3-0.1,0.6-0.1,1-0.1c0.1,0,0.2,0,0.4,0c0.1,0,0.3,0,0.4,0.1
				s0.3,0.1,0.4,0.1c0.1,0.1,0.3,0.1,0.4,0.2h0l0-0.4h0.7v2.1h-0.6c-0.1-0.5-0.2-0.9-0.5-1.1c-0.2-0.3-0.6-0.4-1-0.4
				c-0.3,0-0.6,0.1-0.8,0.2c-0.2,0.1-0.4,0.3-0.6,0.6s-0.3,0.5-0.3,0.8C186.2,135.8,186.2,136.1,186.2,136.4z"/>
			<path fill="#FFFFFF" d="M191.1,136.2c0-0.2,0-0.3,0.1-0.5c0.1-0.1,0.2-0.3,0.4-0.4c0.2-0.1,0.4-0.2,0.6-0.2
				c0.2-0.1,0.5-0.1,0.7-0.1s0.5,0,0.7,0.1c0.2,0.1,0.4,0.2,0.5,0.3c0.1,0.1,0.3,0.3,0.3,0.5c0.1,0.2,0.1,0.5,0.1,0.8
				c0,0.2,0,0.3,0,0.4c0,0.1,0,0.2,0,0.3c0,0.1,0,0.2,0,0.3c0,0.1,0,0.3,0,0.4c0,0,0,0.1,0,0.2c0,0.1,0,0.1,0,0.2c0,0.1,0,0.1,0,0.2
				c0,0.1,0,0.1,0,0.2l0.6,0v0.7h-1.7c0-0.1,0-0.2,0-0.2c0-0.1,0-0.1,0-0.2h0c-0.2,0.2-0.4,0.3-0.6,0.4c-0.2,0.1-0.5,0.1-0.7,0.1
				c-0.2,0-0.4,0-0.5-0.1c-0.2-0.1-0.3-0.1-0.4-0.3c-0.1-0.1-0.2-0.2-0.2-0.4c-0.1-0.1-0.1-0.3-0.1-0.5c0-0.2,0-0.4,0.1-0.5
				s0.2-0.3,0.3-0.4c0.1-0.1,0.3-0.2,0.4-0.3s0.3-0.2,0.5-0.2c0.2-0.1,0.4-0.1,0.6-0.1s0.4-0.1,0.6-0.1v-0.5c0-0.1,0-0.2,0-0.3
				c0-0.1-0.1-0.2-0.1-0.3s-0.1-0.1-0.2-0.2s-0.2-0.1-0.3-0.1c-0.1,0-0.2,0-0.3,0.1s-0.2,0.1-0.3,0.2c0,0,0.1,0.1,0.1,0.2
				c0,0.1,0,0.1,0,0.2c0,0.1,0,0.1,0,0.2c0,0.1-0.1,0.1-0.1,0.2c0,0.1-0.1,0.1-0.2,0.1s-0.2,0.1-0.3,0.1c-0.1,0-0.2,0-0.2-0.1
				c-0.1,0-0.1-0.1-0.2-0.1c0-0.1-0.1-0.1-0.1-0.2C191.1,136.4,191.1,136.3,191.1,136.2z M193.4,137.6c-0.2,0-0.3,0-0.5,0.1
				s-0.3,0.1-0.4,0.2c-0.1,0.1-0.2,0.2-0.3,0.3c-0.1,0.1-0.1,0.2-0.1,0.3c0,0.1,0,0.2,0,0.2s0.1,0.1,0.1,0.1c0,0,0.1,0.1,0.2,0.1
				c0.1,0,0.1,0,0.2,0c0.1,0,0.3,0,0.4-0.1c0.1-0.1,0.2-0.1,0.3-0.2L193.4,137.6z"/>
			<path fill="#FFFFFF" d="M200.4,138.2c0,0,0,0.1,0,0.2c0,0.1,0,0.1,0,0.2s0,0.1,0,0.2c0,0.1,0,0.1,0,0.2l0.6,0v0.7h-2.4v-0.6
				c0.1,0,0.2,0,0.3-0.1c0.1,0,0.1-0.1,0.2-0.2s0.1-0.2,0.1-0.3c0-0.1,0-0.2,0-0.3l0-1.3c0-0.4-0.1-0.7-0.2-0.9s-0.3-0.3-0.5-0.3
				c-0.2,0-0.3,0-0.5,0.1c-0.1,0.1-0.3,0.1-0.4,0.2v2c0,0,0,0.1,0,0.2c0,0.1,0,0.1,0,0.2s0,0.1,0,0.2c0,0.1,0,0.1,0,0.2l0.6,0v0.7
				h-2.4v-0.6c0.1,0,0.2,0,0.3-0.1c0.1,0,0.1-0.1,0.2-0.2s0.1-0.2,0.1-0.3c0-0.1,0-0.2,0-0.3v-1.5c0-0.1,0-0.2,0-0.4
				c0-0.1,0-0.3,0-0.4l-0.6,0v-0.7c0.2,0,0.4,0,0.6,0c0.2,0,0.3,0,0.4-0.1c0.1,0,0.2-0.1,0.3-0.1c0.1,0,0.1-0.1,0.2-0.1h0.4l0,0.4h0
				c0.1-0.1,0.2-0.1,0.3-0.2c0.1-0.1,0.2-0.1,0.3-0.2c0.1,0,0.2-0.1,0.3-0.1c0.1,0,0.2,0,0.3,0c0.3,0,0.5,0,0.7,0.1
				c0.2,0.1,0.3,0.2,0.5,0.4c0.1,0.2,0.2,0.4,0.3,0.6s0.1,0.6,0.1,0.9V138.2z"/>
			<path fill="#FFFFFF" d="M205.7,132.9v5.3c0,0,0,0.1,0,0.2c0,0.1,0,0.1,0,0.2s0,0.1,0,0.2c0,0.1,0,0.1,0,0.2l0.6,0v0.7h-1.7l0-0.4
				h0c-0.2,0.2-0.4,0.4-0.6,0.4c-0.2,0.1-0.4,0.1-0.7,0.1c-0.3,0-0.5-0.1-0.7-0.2c-0.2-0.1-0.4-0.3-0.6-0.5
				c-0.2-0.2-0.3-0.4-0.4-0.7s-0.1-0.6-0.1-0.9c0-0.4,0.1-0.7,0.2-1c0.1-0.3,0.3-0.6,0.5-0.8c0.2-0.2,0.4-0.4,0.7-0.5
				c0.3-0.1,0.6-0.2,0.9-0.2c0.2,0,0.3,0,0.4,0c0.1,0,0.2,0.1,0.4,0.1v-0.6c0,0,0-0.1,0-0.2c0-0.1,0-0.1,0-0.2s0-0.1,0-0.2
				c0-0.1,0-0.1,0-0.2l-0.6,0v-0.7c0.2,0,0.4,0,0.6,0c0.2,0,0.3,0,0.4-0.1c0.1,0,0.2-0.1,0.3-0.1c0.1,0,0.1-0.1,0.2-0.1H205.7z
				 M203.7,139c0.2,0,0.3,0,0.4-0.1s0.2-0.2,0.3-0.3v-2.7c-0.1,0-0.2-0.1-0.3-0.1c-0.1,0-0.2,0-0.4,0c-0.2,0-0.4,0.1-0.5,0.2
				c-0.1,0.1-0.2,0.2-0.3,0.4c-0.1,0.2-0.1,0.3-0.2,0.5c0,0.2-0.1,0.4-0.1,0.6c0,0.2,0,0.4,0.1,0.6s0.1,0.4,0.2,0.5
				c0.1,0.2,0.2,0.3,0.3,0.4S203.5,139,203.7,139z"/>
			<path fill="#FFFFFF" d="M211,137.3l-3,0.1c0,0.2,0,0.5,0.1,0.7c0,0.2,0.1,0.4,0.2,0.5c0.1,0.2,0.2,0.3,0.4,0.4
				c0.2,0.1,0.4,0.1,0.6,0.1c0.1,0,0.2,0,0.3,0s0.2-0.1,0.3-0.1c0.1-0.1,0.2-0.1,0.3-0.2c0.1-0.1,0.2-0.2,0.3-0.3l0.4,0.4
				c-0.2,0.2-0.3,0.4-0.5,0.6s-0.4,0.3-0.5,0.3c-0.2,0.1-0.4,0.1-0.5,0.2c-0.2,0-0.3,0-0.5,0c-0.3,0-0.6-0.1-0.9-0.2
				s-0.5-0.3-0.7-0.5s-0.3-0.5-0.5-0.8c-0.1-0.3-0.2-0.6-0.2-1c0-0.3,0.1-0.6,0.2-0.9c0.1-0.3,0.3-0.5,0.5-0.8s0.4-0.4,0.7-0.5
				c0.3-0.1,0.6-0.2,0.9-0.2c0.2,0,0.3,0,0.5,0c0.2,0,0.3,0.1,0.5,0.1c0.2,0.1,0.3,0.2,0.4,0.3c0.1,0.1,0.2,0.2,0.3,0.4
				s0.2,0.4,0.2,0.6C211,136.7,211,137,211,137.3z M209,135.7c-0.1,0-0.3,0-0.4,0.1c-0.1,0-0.2,0.1-0.3,0.2s-0.1,0.2-0.2,0.3
				c0,0.1-0.1,0.3-0.1,0.4h1.7c0-0.2,0-0.3-0.1-0.5s-0.1-0.2-0.2-0.3c-0.1-0.1-0.1-0.1-0.2-0.2S209.1,135.7,209,135.7z"/>
			<path fill="#FFFFFF" d="M213.3,138.2c0,0,0,0.1,0,0.2c0,0.1,0,0.1,0,0.2s0,0.1,0,0.2c0,0.1,0,0.1,0,0.2l0.6,0v0.7h-2.4v-0.6
				c0.1,0,0.2,0,0.3-0.1c0.1,0,0.1-0.1,0.2-0.2s0.1-0.2,0.1-0.3c0-0.1,0-0.2,0-0.3v-3.7c0-0.1,0-0.2,0-0.4c0-0.1,0-0.3,0-0.4l-0.6,0
				v-0.7c0.2,0,0.4,0,0.6,0c0.2,0,0.3,0,0.4-0.1c0.1,0,0.2-0.1,0.3-0.1c0.1,0,0.1-0.1,0.2-0.1h0.5V138.2z"/>
			<path fill="#FFFFFF" d="M214.6,136.2c0-0.2,0-0.3,0.1-0.5c0.1-0.1,0.2-0.3,0.4-0.4c0.2-0.1,0.4-0.2,0.6-0.2
				c0.2-0.1,0.5-0.1,0.7-0.1s0.5,0,0.7,0.1c0.2,0.1,0.4,0.2,0.5,0.3c0.1,0.1,0.3,0.3,0.3,0.5c0.1,0.2,0.1,0.5,0.1,0.8
				c0,0.2,0,0.3,0,0.4c0,0.1,0,0.2,0,0.3c0,0.1,0,0.2,0,0.3c0,0.1,0,0.3,0,0.4c0,0,0,0.1,0,0.2c0,0.1,0,0.1,0,0.2c0,0.1,0,0.1,0,0.2
				c0,0.1,0,0.1,0,0.2l0.6,0v0.7H217c0-0.1,0-0.2,0-0.2c0-0.1,0-0.1,0-0.2h0c-0.2,0.2-0.4,0.3-0.6,0.4c-0.2,0.1-0.5,0.1-0.7,0.1
				c-0.2,0-0.4,0-0.5-0.1c-0.2-0.1-0.3-0.1-0.4-0.3c-0.1-0.1-0.2-0.2-0.2-0.4c-0.1-0.1-0.1-0.3-0.1-0.5c0-0.2,0-0.4,0.1-0.5
				s0.2-0.3,0.3-0.4c0.1-0.1,0.3-0.2,0.4-0.3s0.3-0.2,0.5-0.2c0.2-0.1,0.4-0.1,0.6-0.1s0.4-0.1,0.6-0.1v-0.5c0-0.1,0-0.2,0-0.3
				c0-0.1-0.1-0.2-0.1-0.3s-0.1-0.1-0.2-0.2s-0.2-0.1-0.3-0.1c-0.1,0-0.2,0-0.3,0.1s-0.2,0.1-0.3,0.2c0,0,0.1,0.1,0.1,0.2
				c0,0.1,0,0.1,0,0.2c0,0.1,0,0.1,0,0.2c0,0.1-0.1,0.1-0.1,0.2c0,0.1-0.1,0.1-0.2,0.1s-0.2,0.1-0.3,0.1c-0.1,0-0.2,0-0.2-0.1
				c-0.1,0-0.1-0.1-0.2-0.1c0-0.1-0.1-0.1-0.1-0.2C214.6,136.4,214.6,136.3,214.6,136.2z M216.9,137.6c-0.2,0-0.3,0-0.5,0.1
				s-0.3,0.1-0.4,0.2c-0.1,0.1-0.2,0.2-0.3,0.3c-0.1,0.1-0.1,0.2-0.1,0.3c0,0.1,0,0.2,0,0.2s0.1,0.1,0.1,0.1c0,0,0.1,0.1,0.2,0.1
				c0.1,0,0.1,0,0.2,0c0.1,0,0.3,0,0.4-0.1c0.1-0.1,0.2-0.1,0.3-0.2L216.9,137.6z"/>
		</g>
	</g>
	<g>
		<g>
			<path fill="#FFFFFF" d="M173.9,91.1c0.1,0.1,0.1,0.3,0.2,0.4c0,0.1,0.1,0.2,0.1,0.3c0,0.1,0.1,0.2,0.1,0.3s0.1,0.2,0.1,0.4h0
				c0.1-0.2,0.2-0.4,0.2-0.7c0.1-0.2,0.2-0.5,0.2-0.7l0.8-2.1c0-0.1,0-0.1,0.1-0.2s0.1-0.2,0.1-0.3c0-0.1,0.1-0.2,0.1-0.3
				c0-0.1,0.1-0.1,0.1-0.2v0l-0.8,0v-0.8h2.3V88c-0.1,0-0.2,0-0.3,0.1s-0.2,0.1-0.3,0.2c-0.1,0.1-0.2,0.2-0.2,0.3s-0.2,0.3-0.2,0.5
				l-2,5.3h-0.8l-2.3-5.4c0-0.1-0.1-0.2-0.1-0.3s-0.1-0.2-0.1-0.3c0-0.1,0-0.2-0.1-0.2c0-0.1,0-0.1,0-0.2l-0.5,0v-0.8h2.9V88h-0.1
				c-0.2,0-0.3,0-0.4,0.1s-0.2,0.2-0.2,0.3c0,0.1,0,0.2,0.1,0.3L173.9,91.1z"/>
			<path fill="#FFFFFF" d="M179.7,92.8c0,0,0,0.1,0,0.2c0,0.1,0,0.1,0,0.2c0,0.1,0,0.2,0,0.2s0,0.2,0,0.2l0.6,0v0.8h-2.6v-0.6
				c0.1,0,0.3,0,0.3-0.1c0.1,0,0.1-0.1,0.2-0.2s0.1-0.2,0.1-0.3s0-0.2,0-0.4v-1.7c0-0.1,0-0.3,0-0.4s0-0.3,0-0.5l-0.7,0v-0.8
				c0.2,0,0.4,0,0.6,0c0.2,0,0.3,0,0.5-0.1c0.1,0,0.2-0.1,0.3-0.1c0.1,0,0.1-0.1,0.2-0.1h0.5V92.8z M179.9,87.6c0,0.1,0,0.2-0.1,0.3
				c0,0.1-0.1,0.2-0.1,0.3s-0.1,0.1-0.2,0.2s-0.2,0.1-0.3,0.1c-0.1,0-0.2,0-0.3-0.1c-0.1,0-0.2-0.1-0.2-0.2s-0.1-0.2-0.2-0.3
				c0-0.1-0.1-0.2-0.1-0.3s0-0.2,0.1-0.3c0-0.1,0.1-0.2,0.2-0.3c0.1-0.1,0.2-0.1,0.2-0.2c0.1,0,0.2-0.1,0.3-0.1c0.1,0,0.2,0,0.3,0.1
				s0.2,0.1,0.2,0.2s0.1,0.2,0.2,0.3C179.9,87.4,179.9,87.5,179.9,87.6z"/>
			<path fill="#FFFFFF" d="M181.7,92.7c0,0.2,0.1,0.3,0.1,0.4c0.1,0.1,0.2,0.2,0.3,0.3s0.3,0.2,0.5,0.2c0.2,0.1,0.4,0.1,0.6,0.1
				c0.1,0,0.2,0,0.2,0s0.2,0,0.2-0.1c0.1,0,0.1-0.1,0.2-0.2c0-0.1,0.1-0.1,0.1-0.2c0-0.1,0-0.2-0.1-0.2c-0.1-0.1-0.1-0.1-0.2-0.2
				s-0.2-0.1-0.4-0.2c-0.1-0.1-0.3-0.1-0.5-0.2c-0.2-0.1-0.4-0.2-0.6-0.3c-0.2-0.1-0.4-0.2-0.6-0.3c-0.2-0.1-0.3-0.3-0.4-0.5
				c-0.1-0.2-0.2-0.4-0.2-0.7c0-0.2,0-0.4,0.1-0.6s0.2-0.4,0.3-0.5c0.2-0.2,0.3-0.3,0.6-0.4c0.2-0.1,0.5-0.1,0.8-0.1
				c0.1,0,0.2,0,0.3,0c0.1,0,0.2,0,0.3,0.1s0.2,0.1,0.3,0.1c0.1,0,0.2,0.1,0.3,0.2h0l0-0.3h0.8V91h-0.6c0-0.2-0.1-0.3-0.2-0.5
				c-0.1-0.1-0.2-0.3-0.3-0.4c-0.1-0.1-0.3-0.2-0.4-0.2c-0.2-0.1-0.3-0.1-0.5-0.1c-0.1,0-0.2,0-0.2,0c-0.1,0-0.2,0.1-0.2,0.1
				c-0.1,0-0.1,0.1-0.1,0.2c0,0.1-0.1,0.1-0.1,0.2c0,0.1,0,0.2,0.1,0.3c0.1,0.1,0.1,0.1,0.3,0.2c0.1,0.1,0.2,0.1,0.4,0.2
				c0.1,0,0.3,0.1,0.5,0.2c0.3,0.1,0.5,0.2,0.7,0.3s0.4,0.2,0.6,0.4s0.3,0.3,0.4,0.5c0.1,0.2,0.1,0.4,0.1,0.6c0,0.3-0.1,0.5-0.2,0.7
				s-0.2,0.4-0.4,0.5c-0.2,0.1-0.4,0.2-0.6,0.3c-0.2,0.1-0.4,0.1-0.7,0.1c-0.1,0-0.3,0-0.4,0c-0.1,0-0.3,0-0.4-0.1
				c-0.1,0-0.3-0.1-0.4-0.1c-0.1,0-0.2-0.1-0.3-0.2h0l0,0.3h-0.8l0-1.7H181.7z"/>
			<path fill="#FFFFFF" d="M190.8,92.8c0,0.2,0,0.3,0,0.4c0,0.1,0,0.2,0,0.2s0,0.2,0,0.2l0.6,0v0.8h-1.9l-0.1-0.5h0
				c-0.1,0.1-0.2,0.2-0.3,0.3c-0.1,0.1-0.2,0.2-0.3,0.2s-0.3,0.1-0.4,0.2c-0.1,0-0.3,0.1-0.4,0.1c-0.3,0-0.5,0-0.8-0.1
				s-0.4-0.2-0.5-0.4c-0.1-0.2-0.2-0.4-0.3-0.7c-0.1-0.3-0.1-0.6-0.1-1v-1.1c0-0.1,0-0.3,0-0.4s0-0.3,0-0.5l-0.7,0v-0.8
				c0.2,0,0.4,0,0.6,0c0.2,0,0.3,0,0.5-0.1c0.1,0,0.2-0.1,0.3-0.1c0.1,0,0.1-0.1,0.2-0.1h0.5v3.1c0,0.4,0.1,0.8,0.2,1
				c0.1,0.2,0.3,0.3,0.5,0.3c0.1,0,0.2,0,0.3,0s0.2-0.1,0.3-0.1c0.1,0,0.2-0.1,0.2-0.2c0.1-0.1,0.1-0.1,0.2-0.2v-2
				c0-0.1,0-0.3,0-0.4c0-0.2,0-0.3,0-0.5l-0.7,0v-0.8c0.2,0,0.4,0,0.6,0s0.3,0,0.5-0.1c0.1,0,0.2-0.1,0.3-0.1c0.1,0,0.1-0.1,0.2-0.1
				h0.5V92.8z"/>
			<path fill="#FFFFFF" d="M192.1,90.5c0-0.2,0.1-0.4,0.2-0.5c0.1-0.2,0.3-0.3,0.4-0.4s0.4-0.2,0.7-0.3c0.3-0.1,0.5-0.1,0.8-0.1
				s0.6,0,0.8,0.1s0.4,0.2,0.6,0.3c0.2,0.2,0.3,0.4,0.4,0.6s0.1,0.5,0.1,0.9c0,0.2,0,0.3,0,0.4c0,0.1,0,0.3,0,0.4s0,0.2,0,0.4
				c0,0.1,0,0.3,0,0.4c0,0,0,0.1,0,0.2c0,0.1,0,0.1,0,0.2c0,0.1,0,0.2,0,0.2s0,0.2,0,0.2l0.6,0v0.8h-1.9c0-0.1,0-0.2,0-0.2
				s0-0.1,0-0.2h0c-0.2,0.2-0.5,0.4-0.7,0.5c-0.2,0.1-0.5,0.1-0.8,0.1c-0.2,0-0.4,0-0.6-0.1c-0.2-0.1-0.3-0.2-0.4-0.3
				c-0.1-0.1-0.2-0.3-0.3-0.4c-0.1-0.2-0.1-0.3-0.1-0.5c0-0.2,0-0.4,0.1-0.6c0.1-0.2,0.2-0.3,0.3-0.5s0.3-0.2,0.5-0.3
				c0.2-0.1,0.4-0.2,0.6-0.2c0.2-0.1,0.4-0.1,0.6-0.2s0.4-0.1,0.7-0.1v-0.5c0-0.1,0-0.3,0-0.4c0-0.1-0.1-0.2-0.1-0.3
				c-0.1-0.1-0.1-0.1-0.2-0.2c-0.1,0-0.2-0.1-0.3-0.1c-0.1,0-0.3,0-0.4,0.1s-0.2,0.1-0.3,0.2c0.1,0.1,0.1,0.1,0.1,0.2s0,0.1,0,0.2
				c0,0.1,0,0.1,0,0.2c0,0.1-0.1,0.1-0.1,0.2c-0.1,0.1-0.1,0.1-0.2,0.1c-0.1,0-0.2,0.1-0.3,0.1c-0.1,0-0.2,0-0.3-0.1
				s-0.1-0.1-0.2-0.1c-0.1-0.1-0.1-0.1-0.1-0.2C192.2,90.7,192.1,90.6,192.1,90.5z M194.7,92.1c-0.2,0-0.4,0.1-0.5,0.1
				c-0.2,0-0.3,0.1-0.4,0.2s-0.2,0.2-0.3,0.3c-0.1,0.1-0.1,0.2-0.1,0.4c0,0.1,0,0.2,0.1,0.2c0,0.1,0.1,0.1,0.1,0.2
				c0,0,0.1,0.1,0.2,0.1c0.1,0,0.1,0,0.2,0c0.2,0,0.3,0,0.4-0.1c0.1-0.1,0.3-0.2,0.4-0.3L194.7,92.1z"/>
			<path fill="#FFFFFF" d="M199.1,92.8c0,0,0,0.1,0,0.2c0,0.1,0,0.1,0,0.2c0,0.1,0,0.2,0,0.2s0,0.2,0,0.2l0.6,0v0.8h-2.6v-0.6
				c0.1,0,0.3,0,0.3-0.1c0.1,0,0.1-0.1,0.2-0.2s0.1-0.2,0.1-0.3s0-0.2,0-0.4v-4.1c0-0.1,0-0.3,0-0.4s0-0.3,0-0.5l-0.7,0v-0.8
				c0.2,0,0.4,0,0.6,0c0.2,0,0.3,0,0.5-0.1c0.1,0,0.2-0.1,0.3-0.1c0.1,0,0.1-0.1,0.2-0.1h0.5V92.8z"/>
			<path fill="#FFFFFF" d="M202.4,92.8c0,0,0,0.1,0,0.2c0,0.1,0,0.1,0,0.2c0,0.1,0,0.2,0,0.2s0,0.2,0,0.2l0.6,0v0.8h-2.6v-0.6
				c0.1,0,0.3,0,0.3-0.1c0.1,0,0.1-0.1,0.2-0.2s0.1-0.2,0.1-0.3s0-0.2,0-0.4v-1.7c0-0.1,0-0.3,0-0.4s0-0.3,0-0.5l-0.7,0v-0.8
				c0.2,0,0.4,0,0.6,0c0.2,0,0.3,0,0.5-0.1c0.1,0,0.2-0.1,0.3-0.1c0.1,0,0.1-0.1,0.2-0.1h0.5V92.8z M202.6,87.6c0,0.1,0,0.2-0.1,0.3
				c0,0.1-0.1,0.2-0.1,0.3s-0.1,0.1-0.2,0.2s-0.2,0.1-0.3,0.1c-0.1,0-0.2,0-0.3-0.1c-0.1,0-0.2-0.1-0.2-0.2s-0.1-0.2-0.2-0.3
				c0-0.1-0.1-0.2-0.1-0.3s0-0.2,0.1-0.3c0-0.1,0.1-0.2,0.2-0.3c0.1-0.1,0.2-0.1,0.2-0.2c0.1,0,0.2-0.1,0.3-0.1c0.1,0,0.2,0,0.3,0.1
				s0.2,0.1,0.2,0.2s0.1,0.2,0.2,0.3C202.5,87.4,202.6,87.5,202.6,87.6z"/>
			<path fill="#FFFFFF" d="M203.6,94.4v-0.7l2.3-3c0.1-0.1,0.1-0.1,0.2-0.2c0.1-0.1,0.1-0.1,0.2-0.2c0-0.1,0.1-0.1,0.1-0.1
				c0,0,0.1-0.1,0.1-0.1v0l-1.4,0c-0.1,0-0.2,0-0.3,0.1s-0.2,0.2-0.2,0.3s-0.1,0.2-0.1,0.4c0,0.2-0.1,0.3-0.1,0.5h-0.6l0.1-1.9h4.1
				V90l-2.2,3c-0.1,0.1-0.2,0.2-0.3,0.3c-0.1,0.1-0.2,0.2-0.3,0.3v0l1.4,0c0.2,0,0.3,0,0.4-0.1c0.1-0.1,0.2-0.2,0.3-0.3
				c0.1-0.1,0.1-0.3,0.2-0.4c0-0.2,0.1-0.3,0.1-0.5h0.6l-0.1,2H203.6z"/>
			<path fill="#FFFFFF" d="M208.9,90.5c0-0.2,0.1-0.4,0.2-0.5c0.1-0.2,0.3-0.3,0.4-0.4s0.4-0.2,0.7-0.3c0.3-0.1,0.5-0.1,0.8-0.1
				s0.6,0,0.8,0.1s0.4,0.2,0.6,0.3c0.2,0.2,0.3,0.4,0.4,0.6s0.1,0.5,0.1,0.9c0,0.2,0,0.3,0,0.4c0,0.1,0,0.3,0,0.4s0,0.2,0,0.4
				c0,0.1,0,0.3,0,0.4c0,0,0,0.1,0,0.2c0,0.1,0,0.1,0,0.2c0,0.1,0,0.2,0,0.2s0,0.2,0,0.2l0.6,0v0.8h-1.9c0-0.1,0-0.2,0-0.2
				s0-0.1,0-0.2h0c-0.2,0.2-0.5,0.4-0.7,0.5c-0.2,0.1-0.5,0.1-0.8,0.1c-0.2,0-0.4,0-0.6-0.1c-0.2-0.1-0.3-0.2-0.4-0.3
				c-0.1-0.1-0.2-0.3-0.3-0.4c-0.1-0.2-0.1-0.3-0.1-0.5c0-0.2,0-0.4,0.1-0.6c0.1-0.2,0.2-0.3,0.3-0.5s0.3-0.2,0.5-0.3
				c0.2-0.1,0.4-0.2,0.6-0.2c0.2-0.1,0.4-0.1,0.6-0.2s0.4-0.1,0.7-0.1v-0.5c0-0.1,0-0.3,0-0.4c0-0.1-0.1-0.2-0.1-0.3
				c-0.1-0.1-0.1-0.1-0.2-0.2c-0.1,0-0.2-0.1-0.3-0.1c-0.1,0-0.3,0-0.4,0.1s-0.2,0.1-0.3,0.2c0.1,0.1,0.1,0.1,0.1,0.2s0,0.1,0,0.2
				c0,0.1,0,0.1,0,0.2c0,0.1-0.1,0.1-0.1,0.2c-0.1,0.1-0.1,0.1-0.2,0.1c-0.1,0-0.2,0.1-0.3,0.1c-0.1,0-0.2,0-0.3-0.1
				s-0.1-0.1-0.2-0.1c-0.1-0.1-0.1-0.1-0.1-0.2C208.9,90.7,208.9,90.6,208.9,90.5z M211.5,92.1c-0.2,0-0.4,0.1-0.5,0.1
				c-0.2,0-0.3,0.1-0.4,0.2s-0.2,0.2-0.3,0.3c-0.1,0.1-0.1,0.2-0.1,0.4c0,0.1,0,0.2,0.1,0.2c0,0.1,0.1,0.1,0.1,0.2
				c0,0,0.1,0.1,0.2,0.1c0.1,0,0.1,0,0.2,0c0.2,0,0.3,0,0.4-0.1c0.1-0.1,0.3-0.2,0.4-0.3L211.5,92.1z"/>
			<path fill="#FFFFFF" d="M213.8,89.4c0.2,0,0.3,0,0.5-0.1c0.2-0.1,0.3-0.2,0.4-0.3c0.1-0.1,0.2-0.3,0.3-0.4s0.1-0.3,0.2-0.4h0.7
				l0,1.3h1.3v0.8l-1.3,0c0,0.5,0,0.9,0,1.2c0,0.3,0,0.6,0,0.7c0,0.2,0,0.3,0,0.4c0,0.1,0,0.1,0,0.1c0,0.1,0,0.2,0,0.3
				s0,0.2,0.1,0.3c0,0.1,0.1,0.2,0.2,0.2c0.1,0.1,0.2,0.1,0.3,0.1c0,0,0.1,0,0.2,0s0.1,0,0.2-0.1c0.1,0,0.2-0.1,0.3-0.2
				c0.1-0.1,0.2-0.2,0.3-0.3l0.5,0.4c-0.2,0.3-0.4,0.5-0.5,0.6c-0.2,0.1-0.4,0.3-0.5,0.3s-0.3,0.1-0.5,0.1s-0.3,0-0.3,0
				c-0.1,0-0.2,0-0.3,0c-0.1,0-0.2-0.1-0.4-0.1c-0.1,0-0.2-0.1-0.3-0.2s-0.2-0.2-0.3-0.3c-0.1-0.1-0.1-0.3-0.2-0.5
				c0-0.2-0.1-0.4-0.1-0.7l0-2.4l-0.7,0V89.4z"/>
			<path fill="#FFFFFF" d="M220.2,92.8c0,0,0,0.1,0,0.2c0,0.1,0,0.1,0,0.2c0,0.1,0,0.2,0,0.2s0,0.2,0,0.2l0.6,0v0.8h-2.6v-0.6
				c0.1,0,0.3,0,0.3-0.1c0.1,0,0.1-0.1,0.2-0.2s0.1-0.2,0.1-0.3s0-0.2,0-0.4v-1.7c0-0.1,0-0.3,0-0.4s0-0.3,0-0.5l-0.7,0v-0.8
				c0.2,0,0.4,0,0.6,0c0.2,0,0.3,0,0.5-0.1c0.1,0,0.2-0.1,0.3-0.1c0.1,0,0.1-0.1,0.2-0.1h0.5V92.8z M220.3,87.6c0,0.1,0,0.2-0.1,0.3
				c0,0.1-0.1,0.2-0.1,0.3s-0.1,0.1-0.2,0.2s-0.2,0.1-0.3,0.1c-0.1,0-0.2,0-0.3-0.1c-0.1,0-0.2-0.1-0.2-0.2s-0.1-0.2-0.2-0.3
				c0-0.1-0.1-0.2-0.1-0.3s0-0.2,0.1-0.3c0-0.1,0.1-0.2,0.2-0.3c0.1-0.1,0.2-0.1,0.2-0.2c0.1,0,0.2-0.1,0.3-0.1c0.1,0,0.2,0,0.3,0.1
				s0.2,0.1,0.2,0.2s0.1,0.2,0.2,0.3C220.3,87.4,220.3,87.5,220.3,87.6z"/>
			<path fill="#FFFFFF" d="M223.8,89.2c0.4,0,0.7,0.1,1,0.2s0.6,0.3,0.8,0.5s0.4,0.5,0.5,0.8c0.1,0.3,0.2,0.7,0.2,1.1
				c0,0.4-0.1,0.8-0.2,1.1s-0.3,0.6-0.5,0.9s-0.5,0.4-0.8,0.6c-0.3,0.1-0.6,0.2-1,0.2c-0.4,0-0.7-0.1-1-0.2
				c-0.3-0.1-0.6-0.3-0.8-0.5c-0.2-0.2-0.4-0.5-0.5-0.8c-0.1-0.3-0.2-0.7-0.2-1.1c0-0.4,0.1-0.8,0.2-1.1c0.1-0.3,0.3-0.6,0.5-0.9
				s0.5-0.4,0.8-0.6C223.2,89.3,223.5,89.2,223.8,89.2z M223.8,89.9c-0.2,0-0.4,0.1-0.5,0.2c-0.1,0.1-0.2,0.2-0.3,0.4
				c-0.1,0.2-0.1,0.4-0.2,0.6s-0.1,0.4-0.1,0.6c0,0.3,0,0.5,0.1,0.8c0,0.3,0.1,0.5,0.2,0.7c0.1,0.2,0.2,0.4,0.3,0.5
				c0.1,0.1,0.3,0.2,0.5,0.2c0.2,0,0.4-0.1,0.5-0.2c0.1-0.1,0.2-0.2,0.3-0.4c0.1-0.2,0.1-0.4,0.2-0.6c0-0.2,0-0.4,0-0.6
				c0-0.2,0-0.5-0.1-0.8c0-0.3-0.1-0.5-0.2-0.7s-0.2-0.4-0.3-0.5C224.2,90,224,89.9,223.8,89.9z"/>
			<path fill="#FFFFFF" d="M232.2,92.8c0,0,0,0.1,0,0.2c0,0.1,0,0.1,0,0.2c0,0.1,0,0.2,0,0.2s0,0.2,0,0.2l0.6,0v0.8h-2.6v-0.6
				c0.1,0,0.3,0,0.3-0.1c0.1,0,0.1-0.1,0.2-0.2c0-0.1,0.1-0.2,0.1-0.3c0-0.1,0-0.2,0-0.4l0-1.4c0-0.4-0.1-0.8-0.2-1
				c-0.1-0.2-0.3-0.3-0.6-0.3c-0.2,0-0.3,0-0.5,0.1c-0.2,0.1-0.3,0.2-0.4,0.3v2.3c0,0,0,0.1,0,0.2c0,0.1,0,0.1,0,0.2
				c0,0.1,0,0.2,0,0.2c0,0.1,0,0.2,0,0.2l0.6,0v0.8h-2.6v-0.6c0.1,0,0.3,0,0.3-0.1c0.1,0,0.1-0.1,0.2-0.2s0.1-0.2,0.1-0.3
				s0-0.2,0-0.4v-1.7c0-0.1,0-0.3,0-0.4s0-0.3,0-0.4l-0.7,0v-0.8c0.2,0,0.4,0,0.6,0c0.2,0,0.3,0,0.5-0.1c0.1,0,0.2-0.1,0.3-0.1
				c0.1,0,0.1-0.1,0.2-0.1h0.5l0,0.5h0c0.1-0.1,0.2-0.1,0.3-0.2c0.1-0.1,0.3-0.1,0.4-0.2s0.3-0.1,0.4-0.1c0.1,0,0.2,0,0.3,0
				c0.3,0,0.6,0,0.8,0.1c0.2,0.1,0.4,0.2,0.5,0.4c0.1,0.2,0.2,0.4,0.3,0.7c0.1,0.3,0.1,0.6,0.1,1V92.8z"/>
		</g>
	</g>
	<rect x="5.8" y="86.6" fill="#214292" width="76.1" height="66.8"/>
	<polygon fill="#1C71B5" points="81.9,35.6 5.8,35.6 5.8,102.6 33.3,102.6 43.8,112.9 54.4,102.6 81.9,102.6 	"/>
	<polygon fill="#00A14B" points="5.8,5.2 5.8,38.7 29.5,38.7 42.8,50 56.1,38.7 109.5,38.7 122.8,50 136.1,38.7 190.5,38.7 
		203.8,50 217.1,38.7 240,38.7 240,5.2 	"/>
	<g>
		<g>
			<path fill="#FFFFFF" d="M35.5,134h-0.2c-0.2,0-0.3,0-0.5,0.1c-0.2,0-0.4,0.1-0.5,0.2s-0.4,0.1-0.6,0.2s-0.5,0.1-0.7,0.1
				c-0.5,0-0.9-0.1-1.3-0.2c-0.4-0.2-0.7-0.4-1-0.7c-0.3-0.3-0.5-0.6-0.6-1c-0.1-0.4-0.2-0.8-0.2-1.3c0-0.3,0-0.5,0.1-0.8
				c0.1-0.3,0.1-0.5,0.3-0.8c0.1-0.3,0.3-0.5,0.4-0.7s0.4-0.4,0.6-0.6c0.2-0.2,0.5-0.3,0.8-0.4c0.3-0.1,0.6-0.1,1-0.1
				c0.1,0,0.2,0,0.4,0c0.1,0,0.3,0,0.5,0.1c0.2,0,0.3,0.1,0.5,0.1c0.1,0.1,0.3,0.1,0.4,0.2h0l0-0.4h0.7v2.1h-0.6
				c0-0.3-0.1-0.5-0.2-0.7c-0.1-0.2-0.2-0.3-0.4-0.5s-0.3-0.2-0.5-0.3c-0.2-0.1-0.4-0.1-0.6-0.1c-0.3,0-0.6,0.1-0.8,0.2
				s-0.4,0.3-0.6,0.6c-0.2,0.2-0.3,0.5-0.3,0.8c-0.1,0.3-0.1,0.6-0.1,0.9c0,0.4,0,0.7,0.1,1.1c0.1,0.3,0.2,0.6,0.4,0.8
				s0.4,0.4,0.6,0.6c0.2,0.1,0.5,0.2,0.8,0.2c0.1,0,0.2,0,0.3,0c0.1,0,0.2,0,0.3,0c0.1,0,0.2,0,0.3-0.1c0.1,0,0.2-0.1,0.3-0.1v-0.8
				c0-0.1,0-0.2,0-0.2c0-0.1,0-0.2,0-0.2c0-0.1,0-0.1,0-0.2c0-0.1,0-0.1,0-0.1l-0.7,0v-0.7h2.4v0.6c-0.1,0-0.2,0-0.3,0
				c-0.1,0-0.1,0.1-0.2,0.1c0,0.1-0.1,0.1-0.1,0.2c0,0.1,0,0.2,0,0.4V134z"/>
			<path fill="#FFFFFF" d="M38.4,132.8c0,0,0,0.1,0,0.2s0,0.1,0,0.2s0,0.1,0,0.2c0,0.1,0,0.1,0,0.2l0.6,0v0.7h-2.4v-0.6
				c0.1,0,0.2,0,0.3-0.1s0.1-0.1,0.2-0.2s0.1-0.2,0.1-0.3c0-0.1,0-0.2,0-0.3v-1.5c0-0.1,0-0.2,0-0.4c0-0.1,0-0.3,0-0.4l-0.6,0V130
				c0.2,0,0.4,0,0.6,0s0.3,0,0.4-0.1c0.1,0,0.2-0.1,0.3-0.1c0.1,0,0.1-0.1,0.2-0.1h0.5V132.8z M38.5,128.2c0,0.1,0,0.2,0,0.3
				s-0.1,0.2-0.1,0.2c-0.1,0.1-0.1,0.1-0.2,0.2c-0.1,0-0.2,0.1-0.3,0.1c-0.1,0-0.2,0-0.3-0.1s-0.2-0.1-0.2-0.2s-0.1-0.1-0.1-0.2
				c0-0.1-0.1-0.2-0.1-0.3s0-0.2,0.1-0.3s0.1-0.2,0.1-0.2s0.1-0.1,0.2-0.2s0.2-0.1,0.3-0.1c0.1,0,0.2,0,0.3,0.1
				c0.1,0,0.2,0.1,0.2,0.2s0.1,0.1,0.1,0.2C38.5,128,38.5,128.1,38.5,128.2z"/>
			<path fill="#FFFFFF" d="M42.6,129.6c0.1,0,0.2,0,0.3,0s0.2,0.1,0.3,0.1c0.1,0.1,0.1,0.1,0.2,0.2s0.1,0.2,0.1,0.3
				c0,0.1,0,0.1,0,0.2c0,0.1-0.1,0.1-0.1,0.2s-0.1,0.1-0.2,0.2c-0.1,0-0.2,0.1-0.3,0.1c-0.1,0-0.1,0-0.2,0c-0.1,0-0.1,0-0.2-0.1
				c-0.1,0-0.1-0.1-0.1-0.2c0-0.1-0.1-0.2-0.1-0.3c-0.1,0-0.2,0-0.3,0.1c-0.1,0.1-0.2,0.1-0.3,0.2c-0.1,0.1-0.2,0.2-0.2,0.3
				s-0.1,0.2-0.1,0.3v1.5c0,0,0,0.1,0,0.2s0,0.1,0,0.2s0,0.1,0,0.2c0,0.1,0,0.1,0,0.2l0.6,0v0.7h-2.4v-0.6c0.1,0,0.2,0,0.3-0.1
				s0.1-0.1,0.2-0.2s0.1-0.2,0.1-0.3c0-0.1,0-0.2,0-0.3v-1.5c0-0.1,0-0.2,0-0.4c0-0.1,0-0.3,0-0.4l-0.6,0V130c0.2,0,0.4,0,0.6,0
				s0.3,0,0.4-0.1c0.1,0,0.2-0.1,0.3-0.1c0.1,0,0.1-0.1,0.2-0.1h0.4l0,0.8h0c0.1-0.1,0.1-0.2,0.2-0.3c0.1-0.1,0.2-0.2,0.3-0.3
				c0.1-0.1,0.2-0.2,0.4-0.2C42.3,129.7,42.5,129.6,42.6,129.6z"/>
			<path fill="#FFFFFF" d="M48,127.5v5.3c0,0,0,0.1,0,0.2s0,0.1,0,0.2s0,0.1,0,0.2c0,0.1,0,0.1,0,0.2l0.6,0v0.7h-1.7l0-0.4h0
				c-0.2,0.2-0.4,0.4-0.6,0.4c-0.2,0.1-0.4,0.1-0.7,0.1c-0.3,0-0.5-0.1-0.7-0.2c-0.2-0.1-0.4-0.3-0.6-0.5c-0.2-0.2-0.3-0.4-0.4-0.7
				s-0.1-0.6-0.1-0.9c0-0.4,0.1-0.7,0.2-1c0.1-0.3,0.3-0.6,0.5-0.8c0.2-0.2,0.4-0.4,0.7-0.5c0.3-0.1,0.6-0.2,0.9-0.2
				c0.2,0,0.3,0,0.4,0c0.1,0,0.2,0.1,0.4,0.1v-0.6c0,0,0-0.1,0-0.2c0-0.1,0-0.1,0-0.2s0-0.1,0-0.2c0-0.1,0-0.1,0-0.2l-0.6,0v-0.7
				c0.2,0,0.4,0,0.6,0s0.3,0,0.4-0.1c0.1,0,0.2-0.1,0.3-0.1c0.1,0,0.1-0.1,0.2-0.1H48z M46,133.6c0.2,0,0.3,0,0.4-0.1
				s0.2-0.2,0.3-0.3v-2.7c-0.1,0-0.2-0.1-0.3-0.1c-0.1,0-0.2,0-0.4,0c-0.2,0-0.4,0.1-0.5,0.2c-0.1,0.1-0.2,0.2-0.3,0.4
				c-0.1,0.2-0.1,0.3-0.2,0.5c0,0.2-0.1,0.4-0.1,0.6c0,0.2,0,0.4,0.1,0.6s0.1,0.4,0.2,0.5c0.1,0.2,0.2,0.3,0.3,0.4
				S45.8,133.6,46,133.6z"/>
			<path fill="#FFFFFF" d="M53.3,131.9l-3,0.1c0,0.2,0,0.5,0.1,0.7c0,0.2,0.1,0.4,0.2,0.5c0.1,0.2,0.2,0.3,0.4,0.4
				c0.2,0.1,0.4,0.1,0.6,0.1c0.1,0,0.2,0,0.3,0s0.2-0.1,0.3-0.1c0.1-0.1,0.2-0.1,0.3-0.2c0.1-0.1,0.2-0.2,0.3-0.3l0.4,0.4
				c-0.2,0.2-0.3,0.4-0.5,0.6s-0.4,0.3-0.5,0.3s-0.4,0.1-0.5,0.2c-0.2,0-0.3,0-0.5,0c-0.3,0-0.6-0.1-0.9-0.2s-0.5-0.3-0.7-0.5
				s-0.3-0.5-0.5-0.8c-0.1-0.3-0.2-0.6-0.2-1c0-0.3,0.1-0.6,0.2-0.9c0.1-0.3,0.3-0.5,0.5-0.8s0.4-0.4,0.7-0.5
				c0.3-0.1,0.6-0.2,0.9-0.2c0.2,0,0.3,0,0.5,0s0.3,0.1,0.5,0.1c0.2,0.1,0.3,0.2,0.4,0.3s0.2,0.2,0.3,0.4s0.2,0.4,0.2,0.6
				C53.3,131.3,53.3,131.6,53.3,131.9z M51.4,130.3c-0.1,0-0.3,0-0.4,0.1s-0.2,0.1-0.3,0.2s-0.1,0.2-0.2,0.3c0,0.1-0.1,0.3-0.1,0.4
				h1.7c0-0.2,0-0.3-0.1-0.5s-0.1-0.2-0.2-0.3c-0.1-0.1-0.1-0.1-0.2-0.2S51.5,130.3,51.4,130.3z"/>
			<path fill="#FFFFFF" d="M57.1,129.6c0.1,0,0.2,0,0.3,0s0.2,0.1,0.3,0.1c0.1,0.1,0.1,0.1,0.2,0.2s0.1,0.2,0.1,0.3
				c0,0.1,0,0.1,0,0.2c0,0.1-0.1,0.1-0.1,0.2s-0.1,0.1-0.2,0.2c-0.1,0-0.2,0.1-0.3,0.1c-0.1,0-0.1,0-0.2,0c-0.1,0-0.1,0-0.2-0.1
				c-0.1,0-0.1-0.1-0.1-0.2c0-0.1-0.1-0.2-0.1-0.3c-0.1,0-0.2,0-0.3,0.1c-0.1,0.1-0.2,0.1-0.3,0.2c-0.1,0.1-0.2,0.2-0.2,0.3
				s-0.1,0.2-0.1,0.3v1.5c0,0,0,0.1,0,0.2s0,0.1,0,0.2s0,0.1,0,0.2c0,0.1,0,0.1,0,0.2l0.6,0v0.7H54v-0.6c0.1,0,0.2,0,0.3-0.1
				s0.1-0.1,0.2-0.2s0.1-0.2,0.1-0.3c0-0.1,0-0.2,0-0.3v-1.5c0-0.1,0-0.2,0-0.4c0-0.1,0-0.3,0-0.4l-0.6,0V130c0.2,0,0.4,0,0.6,0
				s0.3,0,0.4-0.1c0.1,0,0.2-0.1,0.3-0.1c0.1,0,0.1-0.1,0.2-0.1h0.4l0,0.8h0c0.1-0.1,0.1-0.2,0.2-0.3c0.1-0.1,0.2-0.2,0.3-0.3
				c0.1-0.1,0.2-0.2,0.4-0.2C56.8,129.7,56.9,129.6,57.1,129.6z"/>
		</g>
	</g>
	<g>
		<g>
			<path fill="#FFFFFF" d="M33,74.8l2.9,0c0.4,0,0.8,0,1.2,0.1s0.7,0.2,1,0.4s0.5,0.4,0.7,0.6s0.4,0.5,0.5,0.7s0.2,0.5,0.3,0.8
				s0.1,0.6,0.1,0.8c0,0.3,0,0.5-0.1,0.8s-0.2,0.6-0.3,0.8s-0.3,0.5-0.5,0.7s-0.5,0.4-0.7,0.6s-0.6,0.3-1,0.4s-0.8,0.2-1.3,0.2H33
				v-0.7c0.1,0,0.2,0,0.3,0s0.2-0.1,0.2-0.1s0.1-0.1,0.1-0.3s0-0.3,0-0.5v-3.8c0-0.1,0-0.2,0-0.3s0-0.2,0-0.3s0-0.2,0-0.2
				s0-0.1,0-0.2l-0.8,0V74.8z M35.9,75.4c-0.1,0-0.2,0-0.3,0s-0.2,0.1-0.2,0.1s-0.1,0.1-0.1,0.3s0,0.3,0,0.5v3.9c0,0.1,0,0.2,0,0.3
				s0,0.2,0,0.3s0,0.2,0,0.2s0,0.1,0,0.2c0,0,0.1,0,0.2,0s0.2,0,0.3,0s0.2,0,0.3,0s0.2,0,0.2,0c0.4,0,0.7-0.1,0.9-0.2
				s0.5-0.3,0.6-0.6s0.3-0.5,0.4-0.8s0.1-0.6,0.1-1c0-0.5-0.1-1-0.2-1.3s-0.3-0.7-0.5-0.9s-0.4-0.4-0.7-0.5S36.2,75.5,35.9,75.4z"/>
			<path fill="#FFFFFF" d="M40.5,77.9c0-0.2,0.1-0.4,0.2-0.5s0.3-0.3,0.4-0.4s0.4-0.2,0.7-0.3s0.5-0.1,0.8-0.1s0.6,0,0.8,0.1
				s0.4,0.2,0.6,0.3s0.3,0.4,0.4,0.6s0.1,0.5,0.1,0.9c0,0.2,0,0.3,0,0.4s0,0.3,0,0.4s0,0.2,0,0.4s0,0.3,0,0.4c0,0,0,0.1,0,0.2
				s0,0.1,0,0.2s0,0.2,0,0.2s0,0.2,0,0.2l0.6,0v0.8h-1.9c0-0.1,0-0.2,0-0.2s0-0.1,0-0.2h0c-0.2,0.2-0.5,0.4-0.7,0.5
				s-0.5,0.1-0.8,0.1c-0.2,0-0.4,0-0.6-0.1s-0.3-0.2-0.4-0.3s-0.2-0.3-0.3-0.4s-0.1-0.3-0.1-0.5c0-0.2,0-0.4,0.1-0.6
				s0.2-0.3,0.3-0.5s0.3-0.2,0.5-0.3s0.4-0.2,0.6-0.2s0.4-0.1,0.6-0.2s0.4-0.1,0.7-0.1v-0.5c0-0.1,0-0.3,0-0.4S43,77.7,43,77.6
				s-0.1-0.1-0.2-0.2s-0.2-0.1-0.3-0.1c-0.1,0-0.3,0-0.4,0.1s-0.2,0.1-0.3,0.2c0.1,0.1,0.1,0.1,0.1,0.2s0,0.1,0,0.2
				c0,0.1,0,0.1,0,0.2s-0.1,0.1-0.1,0.2s-0.1,0.1-0.2,0.1s-0.2,0.1-0.3,0.1c-0.1,0-0.2,0-0.3-0.1s-0.1-0.1-0.2-0.1s-0.1-0.1-0.1-0.2
				S40.5,78,40.5,77.9z M43.1,79.5c-0.2,0-0.4,0.1-0.5,0.1c-0.2,0-0.3,0.1-0.4,0.2s-0.2,0.2-0.3,0.3s-0.1,0.2-0.1,0.4
				c0,0.1,0,0.2,0.1,0.2s0.1,0.1,0.1,0.2s0.1,0.1,0.2,0.1s0.1,0,0.2,0c0.2,0,0.3,0,0.4-0.1c0.1-0.1,0.3-0.2,0.4-0.3L43.1,79.5z"/>
			<path fill="#FFFFFF" d="M45.4,76.8c0.2,0,0.3,0,0.5-0.1s0.3-0.2,0.4-0.3s0.2-0.3,0.3-0.4s0.1-0.3,0.2-0.4h0.7l0,1.3h1.3v0.8
				l-1.3,0c0,0.5,0,0.9,0,1.2c0,0.3,0,0.6,0,0.7s0,0.3,0,0.4c0,0.1,0,0.1,0,0.1c0,0.1,0,0.2,0,0.3s0,0.2,0.1,0.3
				c0,0.1,0.1,0.2,0.2,0.2S48,81,48.1,81c0,0,0.1,0,0.2,0s0.1,0,0.2-0.1c0.1,0,0.2-0.1,0.3-0.2c0.1-0.1,0.2-0.2,0.3-0.3l0.5,0.4
				c-0.2,0.3-0.4,0.5-0.5,0.6s-0.4,0.3-0.5,0.3s-0.3,0.1-0.5,0.1s-0.3,0-0.3,0c-0.1,0-0.2,0-0.3,0s-0.2-0.1-0.4-0.1
				s-0.2-0.1-0.3-0.2s-0.2-0.2-0.3-0.3s-0.1-0.3-0.2-0.5s-0.1-0.4-0.1-0.7l0-2.4l-0.7,0V76.8z"/>
			<path fill="#FFFFFF" d="M49.9,77.9c0-0.2,0.1-0.4,0.2-0.5s0.3-0.3,0.4-0.4s0.4-0.2,0.7-0.3s0.5-0.1,0.8-0.1s0.6,0,0.8,0.1
				s0.4,0.2,0.6,0.3s0.3,0.4,0.4,0.6s0.1,0.5,0.1,0.9c0,0.2,0,0.3,0,0.4s0,0.3,0,0.4s0,0.2,0,0.4s0,0.3,0,0.4c0,0,0,0.1,0,0.2
				s0,0.1,0,0.2s0,0.2,0,0.2s0,0.2,0,0.2l0.6,0v0.8h-1.9c0-0.1,0-0.2,0-0.2s0-0.1,0-0.2h0c-0.2,0.2-0.5,0.4-0.7,0.5
				s-0.5,0.1-0.8,0.1c-0.2,0-0.4,0-0.6-0.1s-0.3-0.2-0.4-0.3s-0.2-0.3-0.3-0.4s-0.1-0.3-0.1-0.5c0-0.2,0-0.4,0.1-0.6
				s0.2-0.3,0.3-0.5s0.3-0.2,0.5-0.3s0.4-0.2,0.6-0.2s0.4-0.1,0.6-0.2s0.4-0.1,0.7-0.1v-0.5c0-0.1,0-0.3,0-0.4s-0.1-0.2-0.1-0.3
				s-0.1-0.1-0.2-0.2s-0.2-0.1-0.3-0.1c-0.1,0-0.3,0-0.4,0.1s-0.2,0.1-0.3,0.2c0.1,0.1,0.1,0.1,0.1,0.2s0,0.1,0,0.2
				c0,0.1,0,0.1,0,0.2s-0.1,0.1-0.1,0.2s-0.1,0.1-0.2,0.1s-0.2,0.1-0.3,0.1c-0.1,0-0.2,0-0.3-0.1s-0.1-0.1-0.2-0.1s-0.1-0.1-0.1-0.2
				S49.9,78,49.9,77.9z M52.4,79.5c-0.2,0-0.4,0.1-0.5,0.1c-0.2,0-0.3,0.1-0.4,0.2s-0.2,0.2-0.3,0.3s-0.1,0.2-0.1,0.4
				c0,0.1,0,0.2,0.1,0.2s0.1,0.1,0.1,0.2s0.1,0.1,0.2,0.1s0.1,0,0.2,0c0.2,0,0.3,0,0.4-0.1c0.1-0.1,0.3-0.2,0.4-0.3L52.4,79.5z"/>
			<path fill="#FFFFFF" d="M19.4,88.4l-2,5.5h-0.9l-1.3-3.3c0-0.1-0.1-0.2-0.1-0.4s-0.1-0.3-0.2-0.5s-0.1-0.4-0.2-0.6
				s-0.1-0.5-0.2-0.7h0c0,0.4,0,0.7,0,1.1s0,0.6,0,0.9l0,1.8c0,0.1,0,0.2,0,0.3s0,0.2,0,0.3s0,0.2,0,0.2s0,0.1,0,0.2l0.8,0v0.8h-2.3
				v-0.7c0.1,0,0.2,0,0.3,0s0.2-0.1,0.2-0.1s0.1-0.1,0.1-0.3s0.1-0.3,0.1-0.5l0.1-3.8c0-0.1,0-0.2,0-0.3s0-0.2,0-0.3s0-0.2,0-0.2
				s0-0.1,0-0.2l-0.8,0v-0.8h2.2l1.5,3.9c0,0.1,0.1,0.2,0.1,0.4s0.1,0.3,0.2,0.4s0.1,0.3,0.1,0.4s0.1,0.2,0.1,0.3h0
				c0.1-0.2,0.2-0.5,0.2-0.7s0.2-0.4,0.2-0.6l1.5-4.1h2.3v0.7c-0.1,0-0.2,0-0.3,0S21,87.5,21,87.6s-0.1,0.1-0.1,0.3s0,0.3,0,0.5
				l0.2,3.8c0,0.1,0,0.2,0,0.3s0,0.2,0,0.3s0,0.2,0,0.2s0,0.1,0,0.2l0.8,0v0.8h-2.8v-0.7c0.1,0,0.2,0,0.3,0s0.2-0.1,0.2-0.1
				s0.1-0.1,0.1-0.3s0-0.3,0-0.5l-0.1-2.1c0-0.1,0-0.2,0-0.3s0-0.3,0-0.4s0-0.3,0-0.5S19.4,88.6,19.4,88.4L19.4,88.4z"/>
			<path fill="#FFFFFF" d="M22.5,89.9c0-0.2,0.1-0.4,0.2-0.5s0.3-0.3,0.4-0.4s0.4-0.2,0.7-0.3s0.5-0.1,0.8-0.1s0.6,0,0.8,0.1
				s0.4,0.2,0.6,0.3s0.3,0.4,0.4,0.6s0.1,0.5,0.1,0.9c0,0.2,0,0.3,0,0.4s0,0.3,0,0.4s0,0.2,0,0.4s0,0.3,0,0.4c0,0,0,0.1,0,0.2
				s0,0.1,0,0.2s0,0.2,0,0.2s0,0.2,0,0.2l0.6,0v0.8h-1.9c0-0.1,0-0.2,0-0.2s0-0.1,0-0.2h0c-0.2,0.2-0.5,0.4-0.7,0.5
				s-0.5,0.1-0.8,0.1c-0.2,0-0.4,0-0.6-0.1s-0.3-0.2-0.4-0.3s-0.2-0.3-0.3-0.4s-0.1-0.3-0.1-0.5c0-0.2,0-0.4,0.1-0.6
				s0.2-0.3,0.3-0.5s0.3-0.2,0.5-0.3s0.4-0.2,0.6-0.2s0.4-0.1,0.6-0.2s0.4-0.1,0.7-0.1v-0.5c0-0.1,0-0.3,0-0.4s-0.1-0.2-0.1-0.3
				s-0.1-0.1-0.2-0.2s-0.2-0.1-0.3-0.1c-0.1,0-0.3,0-0.4,0.1s-0.2,0.1-0.3,0.2c0.1,0.1,0.1,0.1,0.1,0.2s0,0.1,0,0.2
				c0,0.1,0,0.1,0,0.2s-0.1,0.1-0.1,0.2s-0.1,0.1-0.2,0.1s-0.2,0.1-0.3,0.1c-0.1,0-0.2,0-0.3-0.1s-0.1-0.1-0.2-0.1s-0.1-0.1-0.1-0.2
				S22.5,90,22.5,89.9z M25.1,91.5c-0.2,0-0.4,0.1-0.5,0.1c-0.2,0-0.3,0.1-0.4,0.2s-0.2,0.2-0.3,0.3s-0.1,0.2-0.1,0.4
				c0,0.1,0,0.2,0.1,0.2s0.1,0.1,0.1,0.2s0.1,0.1,0.2,0.1s0.1,0,0.2,0c0.2,0,0.3,0,0.4-0.1c0.1-0.1,0.3-0.2,0.4-0.3L25.1,91.5z"/>
			<path fill="#FFFFFF" d="M32.8,92.2c0,0,0,0.1,0,0.2s0,0.1,0,0.2s0,0.2,0,0.2s0,0.2,0,0.2l0.6,0v0.8h-2.6v-0.6
				c0.1,0,0.3,0,0.3-0.1c0.1,0,0.1-0.1,0.2-0.2c0-0.1,0.1-0.2,0.1-0.3c0-0.1,0-0.2,0-0.4l0-1.4c0-0.4-0.1-0.8-0.2-1
				c-0.1-0.2-0.3-0.3-0.6-0.3c-0.2,0-0.3,0-0.5,0.1c-0.2,0.1-0.3,0.2-0.4,0.3v2.3c0,0,0,0.1,0,0.2s0,0.1,0,0.2c0,0.1,0,0.2,0,0.2
				c0,0.1,0,0.2,0,0.2l0.6,0v0.8h-2.6v-0.6c0.1,0,0.3,0,0.3-0.1s0.1-0.1,0.2-0.2s0.1-0.2,0.1-0.3s0-0.2,0-0.4v-1.7
				c0-0.1,0-0.3,0-0.4s0-0.3,0-0.4l-0.7,0V89c0.2,0,0.4,0,0.6,0s0.3,0,0.5-0.1s0.2-0.1,0.3-0.1s0.1-0.1,0.2-0.1h0.5l0,0.5h0
				c0.1-0.1,0.2-0.1,0.3-0.2s0.3-0.1,0.4-0.2s0.3-0.1,0.4-0.1s0.2,0,0.3,0c0.3,0,0.6,0,0.8,0.1c0.2,0.1,0.4,0.2,0.5,0.4
				s0.2,0.4,0.3,0.7s0.1,0.6,0.1,1V92.2z"/>
			<path fill="#FFFFFF" d="M34.1,89.9c0-0.2,0.1-0.4,0.2-0.5s0.3-0.3,0.4-0.4s0.4-0.2,0.7-0.3s0.5-0.1,0.8-0.1s0.6,0,0.8,0.1
				s0.4,0.2,0.6,0.3s0.3,0.4,0.4,0.6s0.1,0.5,0.1,0.9c0,0.2,0,0.3,0,0.4s0,0.3,0,0.4s0,0.2,0,0.4s0,0.3,0,0.4c0,0,0,0.1,0,0.2
				s0,0.1,0,0.2s0,0.2,0,0.2s0,0.2,0,0.2l0.6,0v0.8h-1.9c0-0.1,0-0.2,0-0.2s0-0.1,0-0.2h0c-0.2,0.2-0.5,0.4-0.7,0.5
				s-0.5,0.1-0.8,0.1c-0.2,0-0.4,0-0.6-0.1s-0.3-0.2-0.4-0.3s-0.2-0.3-0.3-0.4s-0.1-0.3-0.1-0.5c0-0.2,0-0.4,0.1-0.6
				s0.2-0.3,0.3-0.5s0.3-0.2,0.5-0.3s0.4-0.2,0.6-0.2s0.4-0.1,0.6-0.2s0.4-0.1,0.7-0.1v-0.5c0-0.1,0-0.3,0-0.4s-0.1-0.2-0.1-0.3
				s-0.1-0.1-0.2-0.2s-0.2-0.1-0.3-0.1c-0.1,0-0.3,0-0.4,0.1s-0.2,0.1-0.3,0.2c0.1,0.1,0.1,0.1,0.1,0.2s0,0.1,0,0.2
				c0,0.1,0,0.1,0,0.2s-0.1,0.1-0.1,0.2s-0.1,0.1-0.2,0.1s-0.2,0.1-0.3,0.1c-0.1,0-0.2,0-0.3-0.1s-0.1-0.1-0.2-0.1s-0.1-0.1-0.1-0.2
				S34.1,90,34.1,89.9z M36.7,91.5c-0.2,0-0.4,0.1-0.5,0.1c-0.2,0-0.3,0.1-0.4,0.2s-0.2,0.2-0.3,0.3s-0.1,0.2-0.1,0.4
				c0,0.1,0,0.2,0.1,0.2s0.1,0.1,0.1,0.2s0.1,0.1,0.2,0.1s0.1,0,0.2,0c0.2,0,0.3,0,0.4-0.1c0.1-0.1,0.3-0.2,0.4-0.3L36.7,91.5z"/>
			<path fill="#FFFFFF" d="M44.1,89c0,0-0.1,0-0.2,0s-0.1,0-0.1-0.1s-0.1-0.1-0.1-0.1s-0.1-0.1-0.1-0.1c0,0-0.1,0-0.1,0.1
				s-0.1,0.1-0.1,0.2s-0.1,0.1-0.1,0.2s0,0.1-0.1,0.2c0.2,0.2,0.3,0.4,0.4,0.6s0.2,0.5,0.2,0.7c0,0.3-0.1,0.6-0.2,0.8
				s-0.3,0.5-0.5,0.6s-0.5,0.3-0.7,0.4s-0.6,0.1-0.8,0.1c-0.1,0-0.2,0-0.3,0s-0.2,0-0.3,0c-0.1,0-0.3,0-0.4,0.1s-0.1,0.1-0.1,0.2
				c0,0.1,0,0.1,0.1,0.2s0.1,0.1,0.2,0.1s0.2,0,0.4,0.1s0.4,0,0.6,0c0.4,0,0.7,0.1,1,0.1s0.6,0.2,0.8,0.3s0.4,0.3,0.5,0.5
				s0.2,0.4,0.2,0.7c0,0.2,0,0.4-0.1,0.5s-0.2,0.3-0.3,0.4s-0.3,0.2-0.5,0.3s-0.4,0.2-0.6,0.2s-0.4,0.1-0.7,0.2s-0.5,0.1-0.7,0.1
				c-0.4,0-0.8,0-1.1-0.1s-0.5-0.2-0.7-0.3s-0.3-0.3-0.4-0.4s-0.1-0.3-0.1-0.5c0-0.1,0-0.2,0-0.3s0.1-0.2,0.2-0.3s0.2-0.2,0.3-0.3
				s0.3-0.2,0.5-0.2c-0.1,0-0.3-0.1-0.3-0.2s-0.2-0.1-0.2-0.2s-0.1-0.2-0.1-0.2s0-0.2,0-0.3c0-0.1,0-0.2,0-0.3s0.1-0.2,0.2-0.3
				s0.2-0.2,0.3-0.3s0.3-0.2,0.5-0.2v0c-0.1-0.1-0.3-0.1-0.4-0.2s-0.2-0.2-0.3-0.3s-0.2-0.3-0.2-0.4s-0.1-0.3-0.1-0.5
				c0-0.3,0.1-0.6,0.2-0.8s0.3-0.5,0.5-0.6s0.4-0.3,0.7-0.4s0.5-0.1,0.8-0.1c0.1,0,0.2,0,0.3,0s0.2,0,0.3,0.1s0.2,0.1,0.3,0.1
				s0.2,0.1,0.3,0.1c0.1-0.2,0.1-0.3,0.2-0.4s0.2-0.3,0.3-0.4s0.2-0.2,0.4-0.3s0.3-0.1,0.4-0.1c0.2,0,0.4,0.1,0.5,0.2
				s0.2,0.3,0.2,0.5c0,0.1,0,0.1,0,0.2s-0.1,0.1-0.1,0.2s-0.1,0.1-0.2,0.2S44.2,89,44.1,89z M41.7,94.3c-0.1,0-0.2,0-0.2,0
				s-0.2,0-0.3,0s-0.2,0-0.3,0s-0.2,0-0.2,0c-0.1,0.1-0.2,0.2-0.2,0.3s-0.1,0.3-0.1,0.4c0,0.1,0,0.2,0.1,0.4s0.2,0.2,0.3,0.3
				s0.3,0.1,0.4,0.2s0.3,0.1,0.6,0.1c0.2,0,0.4,0,0.6-0.1s0.3-0.1,0.5-0.2s0.2-0.2,0.3-0.3s0.1-0.2,0.1-0.3c0-0.2-0.1-0.4-0.4-0.5
				S42.2,94.4,41.7,94.3z M41.6,89.3c-0.1,0-0.3,0-0.4,0.1s-0.2,0.2-0.3,0.3s-0.1,0.2-0.2,0.4s-0.1,0.3-0.1,0.4c0,0.2,0,0.3,0.1,0.5
				s0.1,0.3,0.2,0.4s0.2,0.2,0.3,0.3s0.2,0.1,0.4,0.1c0.1,0,0.3,0,0.4-0.1s0.2-0.2,0.3-0.3s0.1-0.2,0.2-0.4s0.1-0.3,0.1-0.4
				c0-0.2,0-0.3-0.1-0.5s-0.1-0.3-0.2-0.4s-0.2-0.2-0.3-0.3S41.7,89.3,41.6,89.3z"/>
			<path fill="#FFFFFF" d="M49.4,91.1l-3.3,0.1c0,0.3,0,0.5,0.1,0.8s0.1,0.4,0.2,0.6s0.3,0.3,0.4,0.4s0.4,0.1,0.7,0.1
				c0.1,0,0.2,0,0.3,0s0.3-0.1,0.4-0.1s0.3-0.1,0.4-0.2s0.3-0.2,0.4-0.4l0.4,0.4c-0.2,0.3-0.4,0.5-0.6,0.6s-0.4,0.3-0.6,0.4
				s-0.4,0.1-0.6,0.2s-0.4,0-0.5,0c-0.4,0-0.7-0.1-1-0.2s-0.6-0.3-0.8-0.5s-0.4-0.5-0.5-0.8s-0.2-0.7-0.2-1.1c0-0.4,0.1-0.7,0.2-1
				s0.3-0.6,0.5-0.9s0.5-0.4,0.8-0.6s0.7-0.2,1-0.2c0.2,0,0.4,0,0.6,0s0.4,0.1,0.5,0.2s0.3,0.2,0.5,0.3s0.3,0.3,0.4,0.5
				s0.2,0.4,0.2,0.6S49.4,90.8,49.4,91.1z M47.2,89.3c-0.1,0-0.3,0-0.4,0.1s-0.2,0.1-0.3,0.2s-0.2,0.2-0.2,0.4s-0.1,0.3-0.1,0.5H48
				c0-0.2,0-0.4-0.1-0.5s-0.1-0.3-0.2-0.3s-0.2-0.2-0.3-0.2S47.3,89.3,47.2,89.3z"/>
			<path fill="#FFFFFF" d="M55.1,92.2c0,0,0,0.1,0,0.2s0,0.1,0,0.2c0,0.1,0,0.2,0,0.2c0,0.1,0,0.2,0,0.2l0.6,0v0.8h-2.6v-0.6
				c0.1,0,0.2,0,0.3-0.1c0.1,0,0.1-0.1,0.2-0.2c0-0.1,0.1-0.2,0.1-0.3c0-0.1,0-0.2,0-0.4l0-1.6c0-0.2,0-0.4-0.1-0.5
				c0-0.1-0.1-0.3-0.1-0.4c-0.1-0.1-0.1-0.1-0.2-0.2s-0.2-0.1-0.3-0.1c-0.2,0-0.3,0-0.5,0.1s-0.3,0.2-0.4,0.3v2.3c0,0,0,0.1,0,0.2
				s0,0.1,0,0.2c0,0.1,0,0.2,0,0.2c0,0.1,0,0.2,0,0.2l0.6,0v0.8h-2.6v-0.6c0.1,0,0.3,0,0.3-0.1s0.1-0.1,0.2-0.2s0.1-0.2,0.1-0.3
				s0-0.2,0-0.4v-1.7c0-0.1,0-0.3,0-0.4s0-0.3,0-0.4l-0.7,0V89c0.2,0,0.4,0,0.6,0s0.3,0,0.5-0.1s0.2-0.1,0.3-0.1s0.1-0.1,0.2-0.1
				h0.5l0,0.5h0c0.1-0.1,0.2-0.1,0.3-0.2s0.2-0.1,0.4-0.2s0.2-0.1,0.4-0.1s0.3,0,0.4,0c0.3,0,0.6,0.1,0.8,0.2s0.4,0.3,0.5,0.5
				c0.1-0.1,0.2-0.2,0.4-0.3s0.3-0.2,0.4-0.2s0.3-0.1,0.4-0.1s0.3,0,0.4,0c0.3,0,0.5,0,0.7,0.1s0.4,0.2,0.5,0.4s0.2,0.4,0.3,0.6
				s0.1,0.6,0.1,1v1.5c0,0,0,0.1,0,0.2s0,0.1,0,0.2s0,0.2,0,0.2s0,0.2,0,0.2l0.6,0v0.8h-2.5v-0.6c0.1,0,0.2,0,0.3-0.1
				s0.1-0.1,0.2-0.2c0-0.1,0.1-0.2,0.1-0.3c0-0.1,0-0.2,0-0.4l0-1.5c0-0.2,0-0.4-0.1-0.6s-0.1-0.3-0.2-0.4c-0.1-0.1-0.2-0.1-0.3-0.2
				c-0.1,0-0.2-0.1-0.3-0.1c-0.2,0-0.3,0-0.5,0.1s-0.3,0.1-0.4,0.2c0,0.1,0,0.3,0.1,0.4c0,0.2,0,0.3,0,0.5V92.2z"/>
			<path fill="#FFFFFF" d="M64,91.1l-3.3,0.1c0,0.3,0,0.5,0.1,0.8s0.1,0.4,0.2,0.6s0.3,0.3,0.4,0.4s0.4,0.1,0.7,0.1
				c0.1,0,0.2,0,0.3,0s0.3-0.1,0.4-0.1s0.3-0.1,0.4-0.2s0.3-0.2,0.4-0.4l0.4,0.4c-0.2,0.3-0.4,0.5-0.6,0.6s-0.4,0.3-0.6,0.4
				s-0.4,0.1-0.6,0.2s-0.4,0-0.5,0c-0.4,0-0.7-0.1-1-0.2s-0.6-0.3-0.8-0.5s-0.4-0.5-0.5-0.8s-0.2-0.7-0.2-1.1c0-0.4,0.1-0.7,0.2-1
				s0.3-0.6,0.5-0.9s0.5-0.4,0.8-0.6s0.7-0.2,1-0.2c0.2,0,0.4,0,0.6,0s0.4,0.1,0.5,0.2s0.3,0.2,0.5,0.3s0.3,0.3,0.4,0.5
				s0.2,0.4,0.2,0.6S64,90.8,64,91.1z M61.8,89.3c-0.1,0-0.3,0-0.4,0.1s-0.2,0.1-0.3,0.2s-0.2,0.2-0.2,0.4s-0.1,0.3-0.1,0.5h1.8
				c0-0.2,0-0.4-0.1-0.5s-0.1-0.3-0.2-0.3s-0.2-0.2-0.3-0.2S61.9,89.3,61.8,89.3z"/>
			<path fill="#FFFFFF" d="M69.9,92.2c0,0,0,0.1,0,0.2s0,0.1,0,0.2s0,0.2,0,0.2s0,0.2,0,0.2l0.6,0v0.8h-2.6v-0.6
				c0.1,0,0.3,0,0.3-0.1c0.1,0,0.1-0.1,0.2-0.2c0-0.1,0.1-0.2,0.1-0.3c0-0.1,0-0.2,0-0.4l0-1.4c0-0.4-0.1-0.8-0.2-1
				c-0.1-0.2-0.3-0.3-0.6-0.3c-0.2,0-0.3,0-0.5,0.1c-0.2,0.1-0.3,0.2-0.4,0.3v2.3c0,0,0,0.1,0,0.2s0,0.1,0,0.2c0,0.1,0,0.2,0,0.2
				c0,0.1,0,0.2,0,0.2l0.6,0v0.8h-2.6v-0.6c0.1,0,0.3,0,0.3-0.1s0.1-0.1,0.2-0.2s0.1-0.2,0.1-0.3s0-0.2,0-0.4v-1.7
				c0-0.1,0-0.3,0-0.4s0-0.3,0-0.4l-0.7,0V89c0.2,0,0.4,0,0.6,0s0.3,0,0.5-0.1s0.2-0.1,0.3-0.1s0.1-0.1,0.2-0.1h0.5l0,0.5h0
				c0.1-0.1,0.2-0.1,0.3-0.2s0.3-0.1,0.4-0.2s0.3-0.1,0.4-0.1s0.2,0,0.3,0c0.3,0,0.6,0,0.8,0.1s0.4,0.2,0.5,0.4s0.2,0.4,0.3,0.7
				s0.1,0.6,0.1,1V92.2z"/>
			<path fill="#FFFFFF" d="M70.8,88.8c0.2,0,0.3,0,0.5-0.1s0.3-0.2,0.4-0.3s0.2-0.3,0.3-0.4s0.1-0.3,0.2-0.4h0.7l0,1.3h1.3v0.8
				l-1.3,0c0,0.5,0,0.9,0,1.2c0,0.3,0,0.6,0,0.7s0,0.3,0,0.4c0,0.1,0,0.1,0,0.1c0,0.1,0,0.2,0,0.3s0,0.2,0.1,0.3
				c0,0.1,0.1,0.2,0.2,0.2s0.2,0.1,0.3,0.1c0,0,0.1,0,0.2,0s0.1,0,0.2-0.1c0.1,0,0.2-0.1,0.3-0.2c0.1-0.1,0.2-0.2,0.3-0.3l0.5,0.4
				c-0.2,0.3-0.4,0.5-0.5,0.6s-0.4,0.3-0.5,0.3s-0.3,0.1-0.5,0.1s-0.3,0-0.3,0c-0.1,0-0.2,0-0.3,0s-0.2-0.1-0.4-0.1
				s-0.2-0.1-0.3-0.2s-0.2-0.2-0.3-0.3s-0.1-0.3-0.2-0.5s-0.1-0.4-0.1-0.7l0-2.4l-0.7,0V88.8z"/>
		</g>
	</g>
	<g>
		<g>
			<path fill="#FFFFFF" d="M78.3,22.7c0.1-0.1,0.1-0.1,0.2-0.2c0,0,0,0,0,0c1-1,1-2.6,0-3.5c-0.1-0.1-0.2-0.2-0.3-0.3l0,0
				c0,0-1.3-0.9-1.2-3.2c0-0.1,0-0.2,0-0.2c0,0,0,0,0,0c0-1.4-1.1-2.5-2.5-2.5c-0.1,0-0.3,0-0.4,0l0,0c0,0-1.6,0.3-3.1-1.4
				c-0.1-0.1-0.1-0.1-0.2-0.2c0,0,0,0,0,0c-1-1-2.6-1-3.5,0c-0.1,0.1-0.2,0.2-0.3,0.3l0,0c0,0-0.9,1.3-3.2,1.2c-0.1,0-0.2,0-0.2,0
				c0,0,0,0,0,0c-1.4,0-2.5,1.1-2.5,2.5c0,0.1,0,0.3,0,0.4l0,0c0,0,0.3,1.6-1.4,3.1c-0.1,0.1-0.1,0.1-0.2,0.2c0,0,0,0,0,0
				c-1,1-1,2.6,0,3.5c0.1,0.1,0.2,0.2,0.3,0.3l0,0c0,0,1.3,0.9,1.2,3.2c0,0.1,0,0.2,0,0.2c0,0,0,0,0,0c0,1.4,1.1,2.5,2.5,2.5
				c0.1,0,0.3,0,0.4,0l0,0c0,0,1.6-0.3,3.1,1.4c0.1,0.1,0.1,0.1,0.2,0.2c0,0,0,0,0,0c1,1,2.6,1,3.5,0c0.1-0.1,0.2-0.2,0.3-0.3l0,0
				c0,0,0.9-1.3,3.2-1.2c0.1,0,0.2,0,0.2,0c0,0,0,0,0,0c1.4,0,2.5-1.1,2.5-2.5c0-0.1,0-0.3,0-0.4l0,0C76.9,25.8,76.6,24.3,78.3,22.7
				z M76.7,22.2C76.7,22.2,76.7,22.2,76.7,22.2c0,0-0.1,0.1-0.1,0.1c-1.4,1.3-1.1,2.5-1.1,2.5l0,0c0,0.1,0,0.2,0,0.3
				c0,1.1-0.9,2-2,2c0,0,0,0,0,0c-0.1,0-0.1,0-0.2,0c-1.9-0.1-2.6,1-2.6,1l0,0c-0.1,0.1-0.1,0.2-0.2,0.2c-0.8,0.8-2.1,0.8-2.9,0
				c0,0,0,0,0,0c0,0-0.1-0.1-0.1-0.1c-1.3-1.4-2.5-1.1-2.5-1.1l0,0c-0.1,0-0.2,0-0.3,0c-1.1,0-2-0.9-2-2c0,0,0,0,0,0
				c0-0.1,0-0.1,0-0.2c0.1-1.9-1-2.6-1-2.6l0,0c-0.1-0.1-0.2-0.1-0.2-0.2c-0.8-0.8-0.8-2.1,0-2.9c0,0,0,0,0,0c0,0,0.1-0.1,0.1-0.1
				c1.4-1.3,1.1-2.5,1.1-2.5l0,0c0-0.1,0-0.2,0-0.3c0-1.1,0.9-2,2-2c0,0,0,0,0,0c0.1,0,0.1,0,0.2,0c1.9,0.1,2.6-1,2.6-1l0,0
				c0.1-0.1,0.1-0.2,0.2-0.2c0.8-0.8,2.1-0.8,2.9,0c0,0,0,0,0,0c0,0,0.1,0.1,0.1,0.1c1.3,1.4,2.5,1.1,2.5,1.1l0,0c0.1,0,0.2,0,0.3,0
				c1.1,0,2,0.9,2,2c0,0,0,0,0,0c0,0.1,0,0.1,0,0.2c-0.1,1.9,1,2.6,1,2.6l0,0c0.1,0.1,0.2,0.1,0.2,0.2
				C77.5,20.1,77.5,21.4,76.7,22.2z"/>
			<path fill="#FFFFFF" d="M69.1,15.5h-0.3c-0.5,0-0.9,0.4-0.9,0.9v8.9c0,0.5,0.4,0.9,0.9,0.9h0.3c0.5,0,0.9-0.4,0.9-0.9v-8.9
				C70,15.9,69.6,15.5,69.1,15.5z"/>
			<path fill="#FFFFFF" d="M71.8,17.1h-0.3c-0.5,0-0.9,0.4-0.9,0.9v5.6c0,0.5,0.4,0.9,0.9,0.9h0.3c0.5,0,0.9-0.4,0.9-0.9V18
				C72.7,17.5,72.3,17.1,71.8,17.1z"/>
			<path fill="#FFFFFF" d="M66.4,17.1h-0.3c-0.5,0-0.9,0.4-0.9,0.9v5.6c0,0.5,0.4,0.9,0.9,0.9h0.3c0.5,0,0.9-0.4,0.9-0.9V18
				C67.3,17.5,66.9,17.1,66.4,17.1z"/>
			<path fill="#FFFFFF" d="M63.8,19.1h-0.3c-0.5,0-0.9,0.4-0.9,0.9v1.4c0,0.5,0.4,0.9,0.9,0.9h0.3c0.5,0,0.9-0.4,0.9-0.9V20
				C64.7,19.5,64.3,19.1,63.8,19.1z"/>
			<path fill="#FFFFFF" d="M74.4,19.1h-0.3c-0.5,0-0.9,0.4-0.9,0.9v1.4c0,0.5,0.4,0.9,0.9,0.9h0.3c0.5,0,0.9-0.4,0.9-0.9V20
				C75.3,19.5,74.9,19.1,74.4,19.1z"/>
		</g>
		<g>
			<g>
				<path fill="#FFFFFF" d="M95.5,23.4c0.2,0.3,0.4,0.6,0.6,0.9s0.4,0.4,0.5,0.6c0.2,0.2,0.3,0.3,0.5,0.3c0.2,0.1,0.4,0.1,0.6,0.1
					v1.4h-3.4c-0.2-0.2-0.5-0.4-0.7-0.8c-0.2-0.3-0.5-0.7-0.8-1.2l-1.5-2.5c-0.2-0.3-0.3-0.5-0.5-0.7c-0.1-0.2-0.3-0.4-0.4-0.5
					c-0.1,0-0.2,0-0.3,0c-0.1,0-0.2,0-0.3,0c-0.1,0-0.2,0-0.2,0s-0.2,0-0.3,0v2.2c0,0.4,0,0.7,0,1.1c0,0.3,0,0.6-0.1,0.8l1.7-0.1
					v1.6H85v-1.4c0.2,0,0.4,0,0.6-0.1c0.2,0,0.3-0.1,0.5-0.2c0.1-0.1,0.2-0.3,0.3-0.5s0.1-0.6,0.1-1v-7.9c0-0.2,0-0.4,0-0.6
					c0-0.2,0-0.4,0-0.5c0-0.2,0-0.3,0-0.4s0-0.2,0-0.3L85,13.8v-1.6l5.9,0c0.9,0,1.7,0.1,2.4,0.2c0.7,0.1,1.3,0.4,1.9,0.7
					c0.5,0.3,0.9,0.8,1.2,1.3s0.4,1.2,0.4,2c0,0.5-0.1,0.9-0.2,1.3c-0.1,0.4-0.4,0.8-0.7,1.2c-0.3,0.4-0.7,0.7-1.1,1s-1,0.5-1.6,0.7
					v0c0.3,0.1,0.5,0.3,0.8,0.5s0.5,0.5,0.7,0.8L95.5,23.4z M90.4,19.6c0.6,0,1.1-0.1,1.5-0.2c0.4-0.1,0.7-0.3,1-0.6s0.4-0.6,0.6-1
					s0.2-0.8,0.2-1.4c0-0.4-0.1-0.8-0.2-1.1s-0.2-0.6-0.4-0.8s-0.3-0.4-0.5-0.5c-0.2-0.1-0.4-0.2-0.6-0.3c-0.2-0.1-0.4-0.1-0.6-0.1
					c-0.2,0-0.4,0-0.5,0c-0.2,0-0.4,0-0.6,0.1s-0.3,0.1-0.4,0.2c-0.1,0.1-0.2,0.3-0.3,0.5c-0.1,0.2-0.1,0.5-0.1,0.9v4.2
					c0.2,0,0.3,0,0.5,0.1S90.2,19.6,90.4,19.6z"/>
				<path fill="#FFFFFF" d="M108.2,21.1l-6.8,0.1c0,0.6,0.1,1.1,0.2,1.6c0.1,0.5,0.3,0.9,0.5,1.2c0.2,0.3,0.5,0.6,0.9,0.8
					c0.4,0.2,0.8,0.3,1.4,0.3c0.2,0,0.4,0,0.7-0.1s0.5-0.1,0.8-0.3c0.3-0.1,0.5-0.3,0.8-0.5c0.3-0.2,0.5-0.4,0.8-0.7l0.9,0.9
					c-0.4,0.5-0.8,1-1.2,1.3c-0.4,0.3-0.8,0.6-1.3,0.8c-0.4,0.2-0.8,0.3-1.2,0.4c-0.4,0.1-0.8,0.1-1.1,0.1c-0.8,0-1.4-0.1-2.1-0.4
					c-0.6-0.3-1.2-0.6-1.6-1.1s-0.8-1-1-1.7c-0.2-0.7-0.4-1.4-0.4-2.3c0-0.7,0.1-1.4,0.4-2.1s0.6-1.2,1-1.8s1-0.9,1.6-1.2
					s1.3-0.5,2.1-0.5c0.4,0,0.8,0,1.1,0.1c0.4,0.1,0.7,0.2,1.1,0.3c0.3,0.2,0.7,0.4,1,0.6c0.3,0.3,0.6,0.6,0.8,0.9
					c0.2,0.4,0.4,0.8,0.5,1.3C108.1,19.9,108.2,20.5,108.2,21.1z M103.7,17.5c-0.3,0-0.6,0.1-0.8,0.2c-0.2,0.1-0.4,0.3-0.6,0.5
					s-0.3,0.4-0.4,0.7s-0.2,0.6-0.2,0.9h3.8c0-0.4-0.1-0.8-0.2-1.1c-0.1-0.3-0.2-0.5-0.4-0.7c-0.2-0.2-0.3-0.3-0.5-0.4
					C104.1,17.5,103.9,17.5,103.7,17.5z"/>
				<path fill="#FFFFFF" d="M111.1,23.3c0,0.3,0.1,0.6,0.3,0.9c0.2,0.3,0.4,0.5,0.7,0.7c0.3,0.2,0.6,0.4,1,0.5
					c0.4,0.1,0.8,0.2,1.2,0.2c0.2,0,0.3,0,0.5-0.1s0.3-0.1,0.5-0.2c0.1-0.1,0.2-0.2,0.3-0.3c0.1-0.1,0.1-0.3,0.1-0.5
					c0-0.2-0.1-0.4-0.2-0.5s-0.3-0.3-0.5-0.4c-0.2-0.1-0.5-0.2-0.7-0.3c-0.3-0.1-0.6-0.2-1-0.4c-0.4-0.2-0.9-0.3-1.3-0.5
					c-0.4-0.2-0.8-0.4-1.2-0.6c-0.4-0.3-0.6-0.6-0.9-0.9s-0.3-0.8-0.3-1.4c0-0.4,0.1-0.8,0.2-1.2s0.4-0.8,0.7-1.1
					c0.3-0.3,0.7-0.6,1.2-0.8c0.5-0.2,1.1-0.3,1.7-0.3c0.2,0,0.4,0,0.6,0c0.2,0,0.4,0.1,0.7,0.1c0.2,0.1,0.4,0.1,0.6,0.2
					c0.2,0.1,0.4,0.2,0.6,0.3h0l0-0.6h1.6v3.6h-1.3c-0.1-0.4-0.2-0.7-0.3-1c-0.2-0.3-0.4-0.5-0.6-0.7c-0.2-0.2-0.5-0.3-0.8-0.5
					c-0.3-0.1-0.7-0.2-1-0.2c-0.2,0-0.3,0-0.5,0.1c-0.2,0-0.3,0.1-0.4,0.2c-0.1,0.1-0.2,0.2-0.3,0.3c-0.1,0.1-0.1,0.3-0.1,0.5
					c0,0.2,0.1,0.4,0.2,0.6c0.1,0.2,0.3,0.3,0.5,0.4c0.2,0.1,0.5,0.2,0.8,0.3c0.3,0.1,0.6,0.2,1,0.3c0.5,0.2,1,0.4,1.4,0.6
					c0.4,0.2,0.8,0.5,1.1,0.7c0.3,0.3,0.6,0.6,0.8,1c0.2,0.4,0.3,0.8,0.3,1.3c0,0.5-0.1,1-0.3,1.4c-0.2,0.4-0.5,0.7-0.8,1
					c-0.3,0.3-0.7,0.5-1.2,0.6c-0.4,0.1-0.9,0.2-1.4,0.2c-0.3,0-0.6,0-0.9-0.1c-0.3,0-0.6-0.1-0.8-0.2c-0.3-0.1-0.5-0.2-0.7-0.3
					c-0.2-0.1-0.4-0.2-0.6-0.3h0l0.1,0.6h-1.6l-0.1-3.5H111.1z"/>
				<path fill="#FFFFFF" d="M124.6,16c0.7,0,1.4,0.1,2.1,0.4s1.2,0.6,1.6,1c0.5,0.5,0.8,1,1.1,1.7c0.3,0.7,0.4,1.4,0.4,2.2
					c0,0.9-0.1,1.6-0.4,2.3s-0.6,1.3-1.1,1.8c-0.5,0.5-1,0.9-1.6,1.1s-1.3,0.4-2.1,0.4c-0.7,0-1.4-0.1-2.1-0.4
					c-0.6-0.2-1.2-0.6-1.7-1c-0.5-0.5-0.8-1-1.1-1.6c-0.3-0.6-0.4-1.4-0.4-2.2c0-0.9,0.1-1.6,0.4-2.3s0.6-1.3,1.1-1.8
					c0.5-0.5,1-0.9,1.7-1.2C123.3,16.2,123.9,16,124.6,16z M124.6,17.5c-0.4,0-0.7,0.1-1,0.3c-0.3,0.2-0.5,0.5-0.7,0.9
					c-0.2,0.3-0.3,0.7-0.4,1.2c-0.1,0.4-0.1,0.9-0.1,1.3c0,0.5,0,1.1,0.1,1.6c0.1,0.5,0.2,1,0.4,1.4s0.4,0.7,0.7,1
					c0.3,0.3,0.6,0.4,1.1,0.4c0.4,0,0.7-0.1,1-0.3c0.3-0.2,0.5-0.5,0.6-0.9c0.2-0.4,0.3-0.7,0.3-1.2c0.1-0.4,0.1-0.9,0.1-1.3
					c0-0.5,0-1-0.1-1.5c-0.1-0.5-0.2-1-0.4-1.4c-0.2-0.4-0.4-0.8-0.7-1C125.4,17.6,125,17.5,124.6,17.5z"/>
				<path fill="#FFFFFF" d="M141.9,23.3c0,0.1,0,0.2,0,0.4c0,0.1,0,0.3,0,0.5c0,0.2,0,0.3,0,0.5c0,0.2,0,0.3,0,0.5l1.3-0.1v1.6h-5.4
					v-1.3c0.3,0,0.5,0,0.7-0.1c0.2-0.1,0.3-0.2,0.4-0.4c0.1-0.2,0.1-0.4,0.2-0.6c0-0.2,0-0.5,0-0.7l0-2.9c0-0.9-0.1-1.6-0.4-2
					c-0.3-0.4-0.7-0.6-1.3-0.6c-0.4,0-0.7,0.1-1,0.2c-0.3,0.1-0.6,0.3-0.8,0.5v4.7c0,0.1,0,0.2,0,0.4c0,0.1,0,0.3,0,0.5
					c0,0.2,0,0.3,0,0.5c0,0.2,0,0.3,0,0.5l1.3-0.1v1.6h-5.4v-1.3c0.3,0,0.5,0,0.7-0.1c0.2-0.1,0.3-0.2,0.4-0.4
					c0.1-0.2,0.1-0.4,0.2-0.6c0-0.2,0-0.5,0-0.7V20c0-0.2,0-0.5,0-0.8c0-0.3,0-0.6,0.1-0.9l-1.4,0.1v-1.5c0.5,0,0.9,0,1.3-0.1
					c0.4,0,0.7-0.1,0.9-0.2c0.3-0.1,0.5-0.1,0.6-0.2s0.3-0.1,0.3-0.2h1l0.1,1h0c0.2-0.2,0.4-0.3,0.7-0.4c0.3-0.1,0.5-0.3,0.8-0.4
					s0.5-0.2,0.8-0.2c0.3-0.1,0.5-0.1,0.7-0.1c0.6,0,1.2,0.1,1.6,0.3c0.4,0.2,0.8,0.5,1.1,0.8c0.3,0.4,0.5,0.8,0.6,1.4
					c0.1,0.6,0.2,1.3,0.2,2V23.3z"/>
				<path fill="#FFFFFF" d="M144.6,18.7c0-0.4,0.1-0.8,0.3-1.1c0.2-0.3,0.5-0.6,0.9-0.9c0.4-0.2,0.9-0.4,1.4-0.6
					c0.5-0.1,1.1-0.2,1.7-0.2c0.6,0,1.1,0.1,1.6,0.2c0.5,0.2,0.9,0.4,1.2,0.7c0.3,0.3,0.6,0.7,0.7,1.2c0.2,0.5,0.3,1.1,0.3,1.8
					c0,0.3,0,0.7,0,0.9c0,0.3,0,0.5,0,0.8c0,0.2,0,0.5,0,0.8c0,0.3,0,0.6,0,0.9c0,0.1,0,0.2,0,0.4c0,0.1,0,0.3,0,0.5
					c0,0.2,0,0.3,0,0.5c0,0.2,0,0.3,0,0.5l1.3-0.1v1.6h-3.9c0-0.2,0-0.4-0.1-0.5c0-0.1,0-0.3,0-0.5h0c-0.5,0.5-1,0.8-1.5,1
					c-0.5,0.2-1,0.3-1.6,0.3c-0.4,0-0.8-0.1-1.2-0.2c-0.3-0.1-0.6-0.3-0.9-0.6c-0.2-0.2-0.4-0.5-0.5-0.9c-0.1-0.3-0.2-0.7-0.2-1.1
					c0-0.4,0.1-0.8,0.2-1.2c0.2-0.3,0.4-0.7,0.6-0.9s0.6-0.5,1-0.7s0.8-0.4,1.2-0.5s0.9-0.2,1.3-0.3c0.5-0.1,0.9-0.1,1.4-0.1v-1.1
					c0-0.3,0-0.5-0.1-0.8c0-0.2-0.1-0.4-0.2-0.6c-0.1-0.2-0.3-0.3-0.5-0.4c-0.2-0.1-0.4-0.1-0.7-0.1c-0.3,0-0.5,0.1-0.8,0.2
					c-0.2,0.1-0.4,0.2-0.6,0.4c0.1,0.1,0.2,0.2,0.2,0.4c0,0.1,0,0.3,0,0.4c0,0.1,0,0.3-0.1,0.4c-0.1,0.2-0.1,0.3-0.3,0.4
					s-0.3,0.2-0.4,0.3s-0.4,0.1-0.6,0.1c-0.2,0-0.4,0-0.5-0.1s-0.3-0.2-0.4-0.3s-0.2-0.3-0.2-0.4C144.7,19.1,144.6,18.9,144.6,18.7z
					 M149.9,21.9c-0.4,0-0.8,0.1-1.1,0.2c-0.3,0.1-0.6,0.2-0.9,0.4s-0.4,0.4-0.6,0.6c-0.1,0.2-0.2,0.5-0.2,0.8c0,0.2,0,0.4,0.1,0.5
					c0.1,0.1,0.2,0.2,0.3,0.3c0.1,0.1,0.2,0.2,0.4,0.2c0.1,0,0.3,0.1,0.4,0.1c0.3,0,0.6-0.1,0.9-0.2c0.3-0.1,0.5-0.3,0.7-0.6
					L149.9,21.9z"/>
				<path fill="#FFFFFF" d="M165.8,23.3c0,0.1,0,0.2,0,0.4c0,0.1,0,0.3,0,0.5c0,0.2,0,0.3,0,0.5c0,0.2,0,0.3,0,0.5l1.3-0.1v1.6h-5.4
					v-1.3c0.3,0,0.5,0,0.7-0.1c0.2-0.1,0.3-0.2,0.4-0.4c0.1-0.2,0.1-0.4,0.2-0.6c0-0.2,0-0.5,0-0.7l0-2.9c0-0.9-0.1-1.6-0.4-2
					c-0.3-0.4-0.7-0.6-1.3-0.6c-0.4,0-0.7,0.1-1,0.2c-0.3,0.1-0.6,0.3-0.8,0.5v4.7c0,0.1,0,0.2,0,0.4c0,0.1,0,0.3,0,0.5
					c0,0.2,0,0.3,0,0.5c0,0.2,0,0.3,0,0.5l1.3-0.1v1.6h-5.4v-1.3c0.3,0,0.5,0,0.7-0.1c0.2-0.1,0.3-0.2,0.4-0.4
					c0.1-0.2,0.1-0.4,0.2-0.6c0-0.2,0-0.5,0-0.7V20c0-0.2,0-0.5,0-0.8c0-0.3,0-0.6,0.1-0.9l-1.4,0.1v-1.5c0.5,0,0.9,0,1.3-0.1
					c0.4,0,0.7-0.1,0.9-0.2c0.3-0.1,0.5-0.1,0.6-0.2s0.3-0.1,0.3-0.2h1l0.1,1h0c0.2-0.2,0.4-0.3,0.7-0.4c0.3-0.1,0.5-0.3,0.8-0.4
					s0.5-0.2,0.8-0.2c0.3-0.1,0.5-0.1,0.7-0.1c0.6,0,1.2,0.1,1.6,0.3c0.4,0.2,0.8,0.5,1.1,0.8c0.3,0.4,0.5,0.8,0.6,1.4
					c0.1,0.6,0.2,1.3,0.2,2V23.3z"/>
				<path fill="#FFFFFF" d="M167.7,16.4c0.4,0,0.7-0.1,1-0.3c0.3-0.2,0.6-0.4,0.8-0.6c0.2-0.3,0.5-0.5,0.6-0.8
					c0.2-0.3,0.3-0.6,0.4-0.8h1.5l0,2.6h2.6V18L172,18c0,1,0,1.8,0,2.4c0,0.6,0,1.2,0,1.5c0,0.4,0,0.7,0,0.8c0,0.2,0,0.3,0,0.3
					c0,0.2,0,0.5,0,0.7c0,0.2,0.1,0.5,0.2,0.6c0.1,0.2,0.2,0.3,0.4,0.5c0.2,0.1,0.4,0.2,0.6,0.2c0.1,0,0.2,0,0.3,0s0.3-0.1,0.4-0.2
					c0.2-0.1,0.3-0.2,0.5-0.4c0.2-0.2,0.4-0.4,0.6-0.7l1,0.9c-0.4,0.5-0.8,1-1.1,1.3c-0.4,0.3-0.7,0.5-1.1,0.7
					c-0.3,0.1-0.7,0.2-0.9,0.3c-0.3,0-0.5,0-0.7,0c-0.2,0-0.5,0-0.7-0.1c-0.2,0-0.5-0.1-0.7-0.2c-0.2-0.1-0.5-0.2-0.7-0.4
					c-0.2-0.2-0.4-0.4-0.6-0.7c-0.2-0.3-0.3-0.7-0.4-1.1c-0.1-0.4-0.1-0.9-0.1-1.5l0-5l-1.4,0V16.4z"/>
			</g>
		</g>
	</g>
	<g>
		<polygon fill="#FFFFFF" points="194.1,71.5 194.1,59.4 192.8,59.4 192.8,71.5 192.8,72.7 194.1,72.7 210.6,72.7 210.6,71.5 		"/>
		<rect x="196.3" y="66" fill="#FFFFFF" width="2.3" height="4.4"/>
		<rect x="199.7" y="61.6" fill="#FFFFFF" width="2.3" height="8.9"/>
		<rect x="206.3" y="60.4" fill="#FFFFFF" width="2.3" height="10"/>
		<rect x="202.9" y="63.7" fill="#FFFFFF" width="2.3" height="6.7"/>
	</g>
	<ellipse fill="#FFFFFF" cx="43.8" cy="56.1" rx="6.8" ry="1.9"/>
	<path fill="#FFFFFF" d="M50.6,57.8V56H46c-0.7-0.1-1.4-0.1-2.1-0.1s-1.5,0-2.1,0.1H37v1.8c0,1.1,3,1.9,6.8,1.9
		C47.6,59.8,50.7,58.9,50.6,57.8C50.7,57.8,50.6,57.8,50.6,57.8z"/>
	<g>
		<path fill="#FFFFFF" d="M50.6,58.9c-0.1,1.2-3.1,2.2-6.8,2.2c-3.8,0-6.8-1-6.8-2.2v2.1c0,1.2,3,2.2,6.8,2.2c3.8,0,6.8-1,6.8-2.2
			c0,0,0-0.1,0-0.1V58.9z"/>
		<path fill="#FFFFFF" d="M37,58.8L37,58.8C37,58.8,37.1,58.8,37,58.8L37,58.8z"/>
	</g>
	<g>
		<path fill="#FFFFFF" d="M50.6,65.6c-0.1,1.2-3.1,2.2-6.8,2.2c-3.8,0-6.8-1-6.8-2.2v2.1c0,1.2,3,2.2,6.8,2.2c3.8,0,6.8-1,6.8-2.2
			c0,0,0-0.1,0-0.1V65.6z"/>
		<path fill="#FFFFFF" d="M37,65.5L37,65.5C37,65.5,37.1,65.5,37,65.5L37,65.5z"/>
	</g>
	<g>
		<path fill="#FFFFFF" d="M50.6,62.3c-0.1,1.2-3.1,2.2-6.8,2.2c-3.8,0-6.8-1-6.8-2.2v2.1c0,1.2,3,2.2,6.8,2.2c3.8,0,6.8-1,6.8-2.2
			c0,0,0-0.1,0-0.1V62.3z"/>
		<path fill="#FFFFFF" d="M37,62.1L37,62.1C37,62.2,37.1,62.1,37,62.1L37,62.1z"/>
	</g>
</g>
</svg>
